%TF.GenerationSoftware,KiCad,Pcbnew,7.0.10*%
%TF.CreationDate,2024-01-13T02:21:11+01:00*%
%TF.ProjectId,ferris,66657272-6973-42e6-9b69-6361645f7063,rev?*%
%TF.SameCoordinates,Original*%
%TF.FileFunction,Soldermask,Bot*%
%TF.FilePolarity,Negative*%
%FSLAX46Y46*%
G04 Gerber Fmt 4.6, Leading zero omitted, Abs format (unit mm)*
G04 Created by KiCad (PCBNEW 7.0.10) date 2024-01-13 02:21:11*
%MOMM*%
%LPD*%
G01*
G04 APERTURE LIST*
%ADD10C,0.010000*%
%ADD11C,3.200000*%
G04 APERTURE END LIST*
%TO.C,Ref\u002A\u002A*%
D10*
X115891413Y-62823782D02*
X115860083Y-62934307D01*
X115807331Y-63103893D01*
X115736700Y-63321454D01*
X115651732Y-63575900D01*
X115555969Y-63856145D01*
X115356424Y-64440181D01*
X115050444Y-65360315D01*
X114753158Y-66283614D01*
X114468676Y-67196581D01*
X114201106Y-68085718D01*
X113954558Y-68937527D01*
X113733141Y-69738509D01*
X113540963Y-70475167D01*
X113517389Y-70569611D01*
X113459209Y-70808056D01*
X113398281Y-71063948D01*
X113337843Y-71323039D01*
X113281134Y-71571080D01*
X113231390Y-71793823D01*
X113191851Y-71977019D01*
X113165753Y-72106421D01*
X113156334Y-72167781D01*
X113135349Y-72169944D01*
X113037281Y-72172890D01*
X112864160Y-72175691D01*
X112621611Y-72178319D01*
X112315257Y-72180745D01*
X111950723Y-72182940D01*
X111533632Y-72184876D01*
X111069607Y-72186525D01*
X110564272Y-72187856D01*
X110023252Y-72188843D01*
X109452169Y-72189456D01*
X108856648Y-72189667D01*
X108203336Y-72189634D01*
X107580262Y-72189469D01*
X107032551Y-72189084D01*
X106555389Y-72188391D01*
X106143962Y-72187300D01*
X105793457Y-72185723D01*
X105499059Y-72183571D01*
X105255955Y-72180756D01*
X105059331Y-72177188D01*
X104904372Y-72172780D01*
X104786266Y-72167442D01*
X104700199Y-72161087D01*
X104641355Y-72153624D01*
X104604923Y-72144966D01*
X104586087Y-72135024D01*
X104580034Y-72123710D01*
X104581951Y-72110933D01*
X104619238Y-71986090D01*
X104669501Y-71777418D01*
X104705975Y-71554899D01*
X104730699Y-71300876D01*
X104745708Y-70997690D01*
X104753040Y-70627683D01*
X104761409Y-69806533D01*
X105279543Y-69582320D01*
X105975397Y-69250808D01*
X106777725Y-68784953D01*
X107528690Y-68252483D01*
X108226606Y-67655009D01*
X108869783Y-66994140D01*
X109456533Y-66271486D01*
X109985169Y-65488658D01*
X110454002Y-64647266D01*
X110479447Y-64596987D01*
X110571250Y-64419585D01*
X110647652Y-64278061D01*
X110701294Y-64185763D01*
X110724818Y-64156039D01*
X110725524Y-64158255D01*
X110716834Y-64214716D01*
X110689010Y-64334083D01*
X110645914Y-64500647D01*
X110591410Y-64698697D01*
X110450788Y-65210187D01*
X110301235Y-65790027D01*
X110170661Y-66337550D01*
X110059767Y-66847932D01*
X109969254Y-67316344D01*
X109899821Y-67737960D01*
X109852169Y-68107955D01*
X109826999Y-68421500D01*
X109825010Y-68673771D01*
X109846903Y-68859940D01*
X109893378Y-68975181D01*
X109965137Y-69014667D01*
X109992510Y-69012520D01*
X110131787Y-68962864D01*
X110318064Y-68850101D01*
X110548018Y-68677706D01*
X110818326Y-68449152D01*
X111125667Y-68167914D01*
X111466716Y-67837466D01*
X111838153Y-67461283D01*
X112236653Y-67042838D01*
X112658893Y-66585607D01*
X113101553Y-66093063D01*
X113561307Y-65568681D01*
X114034835Y-65015935D01*
X114518813Y-64438299D01*
X115009918Y-63839248D01*
X115504828Y-63222256D01*
X115565228Y-63146860D01*
X115692993Y-62992606D01*
X115797439Y-62873714D01*
X115869088Y-62800733D01*
X115898459Y-62784210D01*
X115891413Y-62823782D01*
G36*
X115891413Y-62823782D02*
G01*
X115860083Y-62934307D01*
X115807331Y-63103893D01*
X115736700Y-63321454D01*
X115651732Y-63575900D01*
X115555969Y-63856145D01*
X115356424Y-64440181D01*
X115050444Y-65360315D01*
X114753158Y-66283614D01*
X114468676Y-67196581D01*
X114201106Y-68085718D01*
X113954558Y-68937527D01*
X113733141Y-69738509D01*
X113540963Y-70475167D01*
X113517389Y-70569611D01*
X113459209Y-70808056D01*
X113398281Y-71063948D01*
X113337843Y-71323039D01*
X113281134Y-71571080D01*
X113231390Y-71793823D01*
X113191851Y-71977019D01*
X113165753Y-72106421D01*
X113156334Y-72167781D01*
X113135349Y-72169944D01*
X113037281Y-72172890D01*
X112864160Y-72175691D01*
X112621611Y-72178319D01*
X112315257Y-72180745D01*
X111950723Y-72182940D01*
X111533632Y-72184876D01*
X111069607Y-72186525D01*
X110564272Y-72187856D01*
X110023252Y-72188843D01*
X109452169Y-72189456D01*
X108856648Y-72189667D01*
X108203336Y-72189634D01*
X107580262Y-72189469D01*
X107032551Y-72189084D01*
X106555389Y-72188391D01*
X106143962Y-72187300D01*
X105793457Y-72185723D01*
X105499059Y-72183571D01*
X105255955Y-72180756D01*
X105059331Y-72177188D01*
X104904372Y-72172780D01*
X104786266Y-72167442D01*
X104700199Y-72161087D01*
X104641355Y-72153624D01*
X104604923Y-72144966D01*
X104586087Y-72135024D01*
X104580034Y-72123710D01*
X104581951Y-72110933D01*
X104619238Y-71986090D01*
X104669501Y-71777418D01*
X104705975Y-71554899D01*
X104730699Y-71300876D01*
X104745708Y-70997690D01*
X104753040Y-70627683D01*
X104761409Y-69806533D01*
X105279543Y-69582320D01*
X105975397Y-69250808D01*
X106777725Y-68784953D01*
X107528690Y-68252483D01*
X108226606Y-67655009D01*
X108869783Y-66994140D01*
X109456533Y-66271486D01*
X109985169Y-65488658D01*
X110454002Y-64647266D01*
X110479447Y-64596987D01*
X110571250Y-64419585D01*
X110647652Y-64278061D01*
X110701294Y-64185763D01*
X110724818Y-64156039D01*
X110725524Y-64158255D01*
X110716834Y-64214716D01*
X110689010Y-64334083D01*
X110645914Y-64500647D01*
X110591410Y-64698697D01*
X110450788Y-65210187D01*
X110301235Y-65790027D01*
X110170661Y-66337550D01*
X110059767Y-66847932D01*
X109969254Y-67316344D01*
X109899821Y-67737960D01*
X109852169Y-68107955D01*
X109826999Y-68421500D01*
X109825010Y-68673771D01*
X109846903Y-68859940D01*
X109893378Y-68975181D01*
X109965137Y-69014667D01*
X109992510Y-69012520D01*
X110131787Y-68962864D01*
X110318064Y-68850101D01*
X110548018Y-68677706D01*
X110818326Y-68449152D01*
X111125667Y-68167914D01*
X111466716Y-67837466D01*
X111838153Y-67461283D01*
X112236653Y-67042838D01*
X112658893Y-66585607D01*
X113101553Y-66093063D01*
X113561307Y-65568681D01*
X114034835Y-65015935D01*
X114518813Y-64438299D01*
X115009918Y-63839248D01*
X115504828Y-63222256D01*
X115565228Y-63146860D01*
X115692993Y-62992606D01*
X115797439Y-62873714D01*
X115869088Y-62800733D01*
X115898459Y-62784210D01*
X115891413Y-62823782D01*
G37*
X83226667Y-65691117D02*
X83309954Y-65695251D01*
X83555805Y-65707786D01*
X83844528Y-65722850D01*
X84146767Y-65738903D01*
X84433167Y-65754405D01*
X84664770Y-65766757D01*
X85452272Y-65803653D01*
X86245860Y-65832621D01*
X87058588Y-65853894D01*
X87903512Y-65867702D01*
X88793685Y-65874279D01*
X89742163Y-65873854D01*
X90762000Y-65866660D01*
X90864776Y-65865624D01*
X91332988Y-65860434D01*
X91776763Y-65854769D01*
X92188574Y-65848771D01*
X92560892Y-65842582D01*
X92886188Y-65836344D01*
X93156933Y-65830200D01*
X93365600Y-65824290D01*
X93504660Y-65818758D01*
X93566584Y-65813744D01*
X93650237Y-65801228D01*
X93680136Y-65816780D01*
X93639174Y-65861907D01*
X93530556Y-65933330D01*
X93357490Y-66027767D01*
X93093941Y-66169690D01*
X92453716Y-66571861D01*
X91849567Y-67033331D01*
X91288423Y-67546148D01*
X90777216Y-68102363D01*
X90322875Y-68694023D01*
X89932332Y-69313178D01*
X89612517Y-69951876D01*
X89370359Y-70602167D01*
X89307257Y-70822165D01*
X89228045Y-71148372D01*
X89165976Y-71466413D01*
X89125483Y-71752675D01*
X89111000Y-71983545D01*
X89111000Y-72189667D01*
X87798667Y-72189667D01*
X87798667Y-72004712D01*
X87787884Y-71792865D01*
X87734353Y-71431589D01*
X87640323Y-71029936D01*
X87510671Y-70605185D01*
X87350272Y-70174614D01*
X87164002Y-69755500D01*
X86896450Y-69252632D01*
X86458593Y-68583412D01*
X85948668Y-67957579D01*
X85367536Y-67375970D01*
X84716057Y-66839421D01*
X83995092Y-66348771D01*
X83205500Y-65904855D01*
X82739834Y-65667239D01*
X83226667Y-65691117D01*
G36*
X83226667Y-65691117D02*
G01*
X83309954Y-65695251D01*
X83555805Y-65707786D01*
X83844528Y-65722850D01*
X84146767Y-65738903D01*
X84433167Y-65754405D01*
X84664770Y-65766757D01*
X85452272Y-65803653D01*
X86245860Y-65832621D01*
X87058588Y-65853894D01*
X87903512Y-65867702D01*
X88793685Y-65874279D01*
X89742163Y-65873854D01*
X90762000Y-65866660D01*
X90864776Y-65865624D01*
X91332988Y-65860434D01*
X91776763Y-65854769D01*
X92188574Y-65848771D01*
X92560892Y-65842582D01*
X92886188Y-65836344D01*
X93156933Y-65830200D01*
X93365600Y-65824290D01*
X93504660Y-65818758D01*
X93566584Y-65813744D01*
X93650237Y-65801228D01*
X93680136Y-65816780D01*
X93639174Y-65861907D01*
X93530556Y-65933330D01*
X93357490Y-66027767D01*
X93093941Y-66169690D01*
X92453716Y-66571861D01*
X91849567Y-67033331D01*
X91288423Y-67546148D01*
X90777216Y-68102363D01*
X90322875Y-68694023D01*
X89932332Y-69313178D01*
X89612517Y-69951876D01*
X89370359Y-70602167D01*
X89307257Y-70822165D01*
X89228045Y-71148372D01*
X89165976Y-71466413D01*
X89125483Y-71752675D01*
X89111000Y-71983545D01*
X89111000Y-72189667D01*
X87798667Y-72189667D01*
X87798667Y-72004712D01*
X87787884Y-71792865D01*
X87734353Y-71431589D01*
X87640323Y-71029936D01*
X87510671Y-70605185D01*
X87350272Y-70174614D01*
X87164002Y-69755500D01*
X86896450Y-69252632D01*
X86458593Y-68583412D01*
X85948668Y-67957579D01*
X85367536Y-67375970D01*
X84716057Y-66839421D01*
X83995092Y-66348771D01*
X83205500Y-65904855D01*
X82739834Y-65667239D01*
X83226667Y-65691117D01*
G37*
X66171291Y-62785623D02*
X66299954Y-62820192D01*
X66468004Y-62868751D01*
X66658409Y-62926042D01*
X66854137Y-62986811D01*
X67038157Y-63045802D01*
X67193436Y-63097760D01*
X67302944Y-63137428D01*
X67349647Y-63159552D01*
X67361157Y-63180154D01*
X67399719Y-63268625D01*
X67454541Y-63406651D01*
X67517771Y-63574834D01*
X67626102Y-63852049D01*
X67859160Y-64371571D01*
X68135235Y-64911361D01*
X68441537Y-65448320D01*
X68765277Y-65959347D01*
X69093667Y-66421343D01*
X69098961Y-66428304D01*
X69550957Y-66973192D01*
X70061241Y-67501948D01*
X70614156Y-68001343D01*
X71194046Y-68458151D01*
X71785253Y-68859142D01*
X72372120Y-69191089D01*
X72734838Y-69374500D01*
X72709804Y-69586167D01*
X72658581Y-70225276D01*
X72664887Y-70895643D01*
X72738707Y-71523994D01*
X72880395Y-72115584D01*
X72880548Y-72116097D01*
X72880568Y-72127733D01*
X72870417Y-72138076D01*
X72845439Y-72147203D01*
X72800978Y-72155188D01*
X72732378Y-72162108D01*
X72634983Y-72168039D01*
X72504137Y-72173057D01*
X72335183Y-72177236D01*
X72123467Y-72180654D01*
X71864332Y-72183386D01*
X71553122Y-72185507D01*
X71185181Y-72187094D01*
X70755854Y-72188222D01*
X70260483Y-72188968D01*
X69694414Y-72189407D01*
X69052991Y-72189614D01*
X68331556Y-72189667D01*
X63760073Y-72189667D01*
X63732984Y-71903917D01*
X63706714Y-71642128D01*
X63645607Y-71102876D01*
X63569643Y-70500269D01*
X63480754Y-69846887D01*
X63380871Y-69155313D01*
X63271927Y-68438126D01*
X63155853Y-67707908D01*
X63034581Y-66977238D01*
X62910041Y-66258699D01*
X62784167Y-65564871D01*
X62658889Y-64908334D01*
X62638699Y-64801192D01*
X62612654Y-64644718D01*
X62598561Y-64532962D01*
X62599112Y-64485000D01*
X62611877Y-64488913D01*
X62670628Y-64538902D01*
X62764012Y-64633305D01*
X62878872Y-64759224D01*
X62922248Y-64808338D01*
X63433011Y-65379368D01*
X63929567Y-65921308D01*
X64408649Y-66431110D01*
X64866989Y-66905724D01*
X65301320Y-67342099D01*
X65708373Y-67737186D01*
X66084882Y-68087934D01*
X66427577Y-68391295D01*
X66733193Y-68644217D01*
X66998460Y-68843651D01*
X67220111Y-68986548D01*
X67394878Y-69069856D01*
X67519495Y-69090527D01*
X67571599Y-69073879D01*
X67631180Y-69003320D01*
X67662373Y-68872636D01*
X67666448Y-68674861D01*
X67644670Y-68403032D01*
X67587626Y-67995526D01*
X67487590Y-67470484D01*
X67350070Y-66875546D01*
X67175807Y-66213516D01*
X66965545Y-65487199D01*
X66720026Y-64699400D01*
X66439992Y-63852924D01*
X66344173Y-63568900D01*
X66258765Y-63312242D01*
X66187209Y-63093578D01*
X66132912Y-62923430D01*
X66099279Y-62812320D01*
X66089716Y-62770772D01*
X66099047Y-62770297D01*
X66171291Y-62785623D01*
G36*
X66171291Y-62785623D02*
G01*
X66299954Y-62820192D01*
X66468004Y-62868751D01*
X66658409Y-62926042D01*
X66854137Y-62986811D01*
X67038157Y-63045802D01*
X67193436Y-63097760D01*
X67302944Y-63137428D01*
X67349647Y-63159552D01*
X67361157Y-63180154D01*
X67399719Y-63268625D01*
X67454541Y-63406651D01*
X67517771Y-63574834D01*
X67626102Y-63852049D01*
X67859160Y-64371571D01*
X68135235Y-64911361D01*
X68441537Y-65448320D01*
X68765277Y-65959347D01*
X69093667Y-66421343D01*
X69098961Y-66428304D01*
X69550957Y-66973192D01*
X70061241Y-67501948D01*
X70614156Y-68001343D01*
X71194046Y-68458151D01*
X71785253Y-68859142D01*
X72372120Y-69191089D01*
X72734838Y-69374500D01*
X72709804Y-69586167D01*
X72658581Y-70225276D01*
X72664887Y-70895643D01*
X72738707Y-71523994D01*
X72880395Y-72115584D01*
X72880548Y-72116097D01*
X72880568Y-72127733D01*
X72870417Y-72138076D01*
X72845439Y-72147203D01*
X72800978Y-72155188D01*
X72732378Y-72162108D01*
X72634983Y-72168039D01*
X72504137Y-72173057D01*
X72335183Y-72177236D01*
X72123467Y-72180654D01*
X71864332Y-72183386D01*
X71553122Y-72185507D01*
X71185181Y-72187094D01*
X70755854Y-72188222D01*
X70260483Y-72188968D01*
X69694414Y-72189407D01*
X69052991Y-72189614D01*
X68331556Y-72189667D01*
X63760073Y-72189667D01*
X63732984Y-71903917D01*
X63706714Y-71642128D01*
X63645607Y-71102876D01*
X63569643Y-70500269D01*
X63480754Y-69846887D01*
X63380871Y-69155313D01*
X63271927Y-68438126D01*
X63155853Y-67707908D01*
X63034581Y-66977238D01*
X62910041Y-66258699D01*
X62784167Y-65564871D01*
X62658889Y-64908334D01*
X62638699Y-64801192D01*
X62612654Y-64644718D01*
X62598561Y-64532962D01*
X62599112Y-64485000D01*
X62611877Y-64488913D01*
X62670628Y-64538902D01*
X62764012Y-64633305D01*
X62878872Y-64759224D01*
X62922248Y-64808338D01*
X63433011Y-65379368D01*
X63929567Y-65921308D01*
X64408649Y-66431110D01*
X64866989Y-66905724D01*
X65301320Y-67342099D01*
X65708373Y-67737186D01*
X66084882Y-68087934D01*
X66427577Y-68391295D01*
X66733193Y-68644217D01*
X66998460Y-68843651D01*
X67220111Y-68986548D01*
X67394878Y-69069856D01*
X67519495Y-69090527D01*
X67571599Y-69073879D01*
X67631180Y-69003320D01*
X67662373Y-68872636D01*
X67666448Y-68674861D01*
X67644670Y-68403032D01*
X67587626Y-67995526D01*
X67487590Y-67470484D01*
X67350070Y-66875546D01*
X67175807Y-66213516D01*
X66965545Y-65487199D01*
X66720026Y-64699400D01*
X66439992Y-63852924D01*
X66344173Y-63568900D01*
X66258765Y-63312242D01*
X66187209Y-63093578D01*
X66132912Y-62923430D01*
X66099279Y-62812320D01*
X66089716Y-62770772D01*
X66099047Y-62770297D01*
X66171291Y-62785623D01*
G37*
X106251981Y-64552562D02*
X106252580Y-64553543D01*
X106229063Y-64594671D01*
X106154931Y-64680193D01*
X106041136Y-64798201D01*
X105898630Y-64936784D01*
X105770349Y-65054785D01*
X105210423Y-65499684D01*
X104604240Y-65873911D01*
X103951108Y-66177853D01*
X103250334Y-66411895D01*
X103177722Y-66431796D01*
X103026430Y-66472852D01*
X102917013Y-66501966D01*
X102869334Y-66513823D01*
X102849075Y-66504016D01*
X102772449Y-66453409D01*
X102654124Y-66369276D01*
X102509500Y-66262380D01*
X102477020Y-66238522D01*
X102278077Y-66106223D01*
X102026654Y-65955341D01*
X101744043Y-65797472D01*
X101451535Y-65644211D01*
X101170423Y-65507152D01*
X100922000Y-65397891D01*
X100855188Y-65367776D01*
X100792594Y-65327795D01*
X100795000Y-65306189D01*
X100834681Y-65299891D01*
X100950729Y-65283956D01*
X101129093Y-65260567D01*
X101357648Y-65231291D01*
X101624270Y-65197693D01*
X101916834Y-65161339D01*
X101987145Y-65152649D01*
X102511638Y-65086908D01*
X102976932Y-65026544D01*
X103405261Y-64968390D01*
X103818862Y-64909277D01*
X104239970Y-64846038D01*
X104690820Y-64775506D01*
X105193647Y-64694512D01*
X105414121Y-64659322D01*
X105679050Y-64619035D01*
X105906901Y-64586660D01*
X106086073Y-64563753D01*
X106204966Y-64551868D01*
X106251981Y-64552562D01*
G36*
X106251981Y-64552562D02*
G01*
X106252580Y-64553543D01*
X106229063Y-64594671D01*
X106154931Y-64680193D01*
X106041136Y-64798201D01*
X105898630Y-64936784D01*
X105770349Y-65054785D01*
X105210423Y-65499684D01*
X104604240Y-65873911D01*
X103951108Y-66177853D01*
X103250334Y-66411895D01*
X103177722Y-66431796D01*
X103026430Y-66472852D01*
X102917013Y-66501966D01*
X102869334Y-66513823D01*
X102849075Y-66504016D01*
X102772449Y-66453409D01*
X102654124Y-66369276D01*
X102509500Y-66262380D01*
X102477020Y-66238522D01*
X102278077Y-66106223D01*
X102026654Y-65955341D01*
X101744043Y-65797472D01*
X101451535Y-65644211D01*
X101170423Y-65507152D01*
X100922000Y-65397891D01*
X100855188Y-65367776D01*
X100792594Y-65327795D01*
X100795000Y-65306189D01*
X100834681Y-65299891D01*
X100950729Y-65283956D01*
X101129093Y-65260567D01*
X101357648Y-65231291D01*
X101624270Y-65197693D01*
X101916834Y-65161339D01*
X101987145Y-65152649D01*
X102511638Y-65086908D01*
X102976932Y-65026544D01*
X103405261Y-64968390D01*
X103818862Y-64909277D01*
X104239970Y-64846038D01*
X104690820Y-64775506D01*
X105193647Y-64694512D01*
X105414121Y-64659322D01*
X105679050Y-64619035D01*
X105906901Y-64586660D01*
X106086073Y-64563753D01*
X106204966Y-64551868D01*
X106251981Y-64552562D01*
G37*
X72058427Y-64286900D02*
X72184985Y-64304465D01*
X72366598Y-64333572D01*
X72589631Y-64372042D01*
X72840447Y-64417696D01*
X73316660Y-64505502D01*
X73859668Y-64602426D01*
X74377500Y-64690684D01*
X74897487Y-64774792D01*
X75446957Y-64859266D01*
X76053242Y-64948622D01*
X76055568Y-64948959D01*
X76354188Y-64992936D01*
X76624574Y-65034073D01*
X76855606Y-65070572D01*
X77036164Y-65100635D01*
X77155126Y-65122464D01*
X77201372Y-65134261D01*
X77199253Y-65143627D01*
X77144324Y-65172206D01*
X77039690Y-65205374D01*
X76788545Y-65279060D01*
X76412594Y-65411476D01*
X76028581Y-65568903D01*
X75659323Y-65741168D01*
X75327635Y-65918100D01*
X75056334Y-66089528D01*
X74934847Y-66171285D01*
X74830669Y-66233343D01*
X74771550Y-66258670D01*
X74678300Y-66245968D01*
X74521285Y-66194808D01*
X74321198Y-66111785D01*
X74092746Y-66004195D01*
X73850636Y-65879330D01*
X73609574Y-65744484D01*
X73384268Y-65606952D01*
X73189424Y-65474026D01*
X73024193Y-65347644D01*
X72823300Y-65182152D01*
X72625396Y-65008103D01*
X72439390Y-64834412D01*
X72274188Y-64669993D01*
X72138700Y-64523758D01*
X72041830Y-64404623D01*
X71992488Y-64321501D01*
X71999581Y-64283307D01*
X72000561Y-64283057D01*
X72058427Y-64286900D01*
G36*
X72058427Y-64286900D02*
G01*
X72184985Y-64304465D01*
X72366598Y-64333572D01*
X72589631Y-64372042D01*
X72840447Y-64417696D01*
X73316660Y-64505502D01*
X73859668Y-64602426D01*
X74377500Y-64690684D01*
X74897487Y-64774792D01*
X75446957Y-64859266D01*
X76053242Y-64948622D01*
X76055568Y-64948959D01*
X76354188Y-64992936D01*
X76624574Y-65034073D01*
X76855606Y-65070572D01*
X77036164Y-65100635D01*
X77155126Y-65122464D01*
X77201372Y-65134261D01*
X77199253Y-65143627D01*
X77144324Y-65172206D01*
X77039690Y-65205374D01*
X76788545Y-65279060D01*
X76412594Y-65411476D01*
X76028581Y-65568903D01*
X75659323Y-65741168D01*
X75327635Y-65918100D01*
X75056334Y-66089528D01*
X74934847Y-66171285D01*
X74830669Y-66233343D01*
X74771550Y-66258670D01*
X74678300Y-66245968D01*
X74521285Y-66194808D01*
X74321198Y-66111785D01*
X74092746Y-66004195D01*
X73850636Y-65879330D01*
X73609574Y-65744484D01*
X73384268Y-65606952D01*
X73189424Y-65474026D01*
X73024193Y-65347644D01*
X72823300Y-65182152D01*
X72625396Y-65008103D01*
X72439390Y-64834412D01*
X72274188Y-64669993D01*
X72138700Y-64523758D01*
X72041830Y-64404623D01*
X71992488Y-64321501D01*
X71999581Y-64283307D01*
X72000561Y-64283057D01*
X72058427Y-64286900D01*
G37*
X96687790Y-49943563D02*
X97380070Y-50069844D01*
X98095385Y-50265543D01*
X98216067Y-50304735D01*
X98371936Y-50361522D01*
X98474561Y-50412229D01*
X98542122Y-50466697D01*
X98592801Y-50534766D01*
X98607808Y-50559442D01*
X98658053Y-50649382D01*
X98678334Y-50698597D01*
X98678116Y-50699529D01*
X98641976Y-50686522D01*
X98555958Y-50634994D01*
X98437382Y-50555246D01*
X98363642Y-50506116D01*
X98045854Y-50349047D01*
X97724667Y-50274206D01*
X97405941Y-50280164D01*
X97095537Y-50365491D01*
X96799313Y-50528757D01*
X96523131Y-50768533D01*
X96272849Y-51083389D01*
X96192127Y-51209754D01*
X96027459Y-51524773D01*
X95913461Y-51851933D01*
X95843497Y-52213483D01*
X95810929Y-52631667D01*
X95818205Y-53092636D01*
X95887134Y-53571316D01*
X96022148Y-54002259D01*
X96224713Y-54389975D01*
X96496297Y-54738975D01*
X96574871Y-54819614D01*
X96865086Y-55052211D01*
X97170289Y-55203303D01*
X97484325Y-55272896D01*
X97801038Y-55260997D01*
X98114273Y-55167614D01*
X98417874Y-54992753D01*
X98705686Y-54736423D01*
X98834652Y-54586314D01*
X99078056Y-54210834D01*
X99255659Y-53787394D01*
X99365131Y-53322377D01*
X99404143Y-52822167D01*
X99403631Y-52735349D01*
X99394845Y-52510812D01*
X99377489Y-52297842D01*
X99354210Y-52132957D01*
X99331740Y-52002965D01*
X99319728Y-51895091D01*
X99323203Y-51845687D01*
X99346390Y-51867136D01*
X99395631Y-51954108D01*
X99464371Y-52094338D01*
X99546805Y-52274520D01*
X99637132Y-52481348D01*
X99729548Y-52701517D01*
X99818253Y-52921719D01*
X99897443Y-53128649D01*
X99961316Y-53309000D01*
X100084561Y-53696865D01*
X100176615Y-54038008D01*
X100240586Y-54355173D01*
X100280767Y-54674647D01*
X100301450Y-55022716D01*
X100306927Y-55425667D01*
X100306658Y-55516247D01*
X100303181Y-55807818D01*
X100294951Y-56034674D01*
X100280832Y-56212520D01*
X100259688Y-56357061D01*
X100230385Y-56484000D01*
X100228893Y-56489444D01*
X100070916Y-56983528D01*
X99880435Y-57416915D01*
X99645125Y-57810237D01*
X99352660Y-58184126D01*
X98990717Y-58559214D01*
X98724528Y-58796467D01*
X98244388Y-59151810D01*
X97707769Y-59464797D01*
X97107064Y-59739656D01*
X96434667Y-59980617D01*
X96370700Y-60000358D01*
X96181645Y-60047547D01*
X96012869Y-60065108D01*
X95820834Y-60058571D01*
X95538822Y-60031478D01*
X94870374Y-59919211D01*
X94255326Y-59744234D01*
X93695203Y-59507697D01*
X93191532Y-59210749D01*
X92745839Y-58854540D01*
X92359651Y-58440218D01*
X92034493Y-57968933D01*
X91771892Y-57441835D01*
X91573375Y-56860073D01*
X91558395Y-56804521D01*
X91493177Y-56540259D01*
X91444969Y-56292788D01*
X91411568Y-56041859D01*
X91390771Y-55767223D01*
X91380375Y-55448631D01*
X91378177Y-55065834D01*
X91378238Y-55046889D01*
X91385769Y-54603312D01*
X91406707Y-54223455D01*
X91443844Y-53887789D01*
X91499967Y-53576786D01*
X91577867Y-53270918D01*
X91680333Y-52950658D01*
X91848845Y-52515926D01*
X92133299Y-51948186D01*
X92467374Y-51446458D01*
X92849857Y-51012058D01*
X93279541Y-50646304D01*
X93755214Y-50350511D01*
X94275667Y-50125997D01*
X94797994Y-49983017D01*
X95391869Y-49899971D01*
X96023429Y-49886879D01*
X96687790Y-49943563D01*
G36*
X96687790Y-49943563D02*
G01*
X97380070Y-50069844D01*
X98095385Y-50265543D01*
X98216067Y-50304735D01*
X98371936Y-50361522D01*
X98474561Y-50412229D01*
X98542122Y-50466697D01*
X98592801Y-50534766D01*
X98607808Y-50559442D01*
X98658053Y-50649382D01*
X98678334Y-50698597D01*
X98678116Y-50699529D01*
X98641976Y-50686522D01*
X98555958Y-50634994D01*
X98437382Y-50555246D01*
X98363642Y-50506116D01*
X98045854Y-50349047D01*
X97724667Y-50274206D01*
X97405941Y-50280164D01*
X97095537Y-50365491D01*
X96799313Y-50528757D01*
X96523131Y-50768533D01*
X96272849Y-51083389D01*
X96192127Y-51209754D01*
X96027459Y-51524773D01*
X95913461Y-51851933D01*
X95843497Y-52213483D01*
X95810929Y-52631667D01*
X95818205Y-53092636D01*
X95887134Y-53571316D01*
X96022148Y-54002259D01*
X96224713Y-54389975D01*
X96496297Y-54738975D01*
X96574871Y-54819614D01*
X96865086Y-55052211D01*
X97170289Y-55203303D01*
X97484325Y-55272896D01*
X97801038Y-55260997D01*
X98114273Y-55167614D01*
X98417874Y-54992753D01*
X98705686Y-54736423D01*
X98834652Y-54586314D01*
X99078056Y-54210834D01*
X99255659Y-53787394D01*
X99365131Y-53322377D01*
X99404143Y-52822167D01*
X99403631Y-52735349D01*
X99394845Y-52510812D01*
X99377489Y-52297842D01*
X99354210Y-52132957D01*
X99331740Y-52002965D01*
X99319728Y-51895091D01*
X99323203Y-51845687D01*
X99346390Y-51867136D01*
X99395631Y-51954108D01*
X99464371Y-52094338D01*
X99546805Y-52274520D01*
X99637132Y-52481348D01*
X99729548Y-52701517D01*
X99818253Y-52921719D01*
X99897443Y-53128649D01*
X99961316Y-53309000D01*
X100084561Y-53696865D01*
X100176615Y-54038008D01*
X100240586Y-54355173D01*
X100280767Y-54674647D01*
X100301450Y-55022716D01*
X100306927Y-55425667D01*
X100306658Y-55516247D01*
X100303181Y-55807818D01*
X100294951Y-56034674D01*
X100280832Y-56212520D01*
X100259688Y-56357061D01*
X100230385Y-56484000D01*
X100228893Y-56489444D01*
X100070916Y-56983528D01*
X99880435Y-57416915D01*
X99645125Y-57810237D01*
X99352660Y-58184126D01*
X98990717Y-58559214D01*
X98724528Y-58796467D01*
X98244388Y-59151810D01*
X97707769Y-59464797D01*
X97107064Y-59739656D01*
X96434667Y-59980617D01*
X96370700Y-60000358D01*
X96181645Y-60047547D01*
X96012869Y-60065108D01*
X95820834Y-60058571D01*
X95538822Y-60031478D01*
X94870374Y-59919211D01*
X94255326Y-59744234D01*
X93695203Y-59507697D01*
X93191532Y-59210749D01*
X92745839Y-58854540D01*
X92359651Y-58440218D01*
X92034493Y-57968933D01*
X91771892Y-57441835D01*
X91573375Y-56860073D01*
X91558395Y-56804521D01*
X91493177Y-56540259D01*
X91444969Y-56292788D01*
X91411568Y-56041859D01*
X91390771Y-55767223D01*
X91380375Y-55448631D01*
X91378177Y-55065834D01*
X91378238Y-55046889D01*
X91385769Y-54603312D01*
X91406707Y-54223455D01*
X91443844Y-53887789D01*
X91499967Y-53576786D01*
X91577867Y-53270918D01*
X91680333Y-52950658D01*
X91848845Y-52515926D01*
X92133299Y-51948186D01*
X92467374Y-51446458D01*
X92849857Y-51012058D01*
X93279541Y-50646304D01*
X93755214Y-50350511D01*
X94275667Y-50125997D01*
X94797994Y-49983017D01*
X95391869Y-49899971D01*
X96023429Y-49886879D01*
X96687790Y-49943563D01*
G37*
X81131167Y-49849270D02*
X81335950Y-49860251D01*
X81573760Y-49881160D01*
X81778035Y-49907793D01*
X81923208Y-49937308D01*
X81975058Y-49952353D01*
X82138546Y-50004567D01*
X82313567Y-50065812D01*
X82481721Y-50129010D01*
X82624611Y-50187084D01*
X82723837Y-50232958D01*
X82761000Y-50259555D01*
X82756306Y-50263250D01*
X82693149Y-50272908D01*
X82571721Y-50279639D01*
X82411750Y-50282167D01*
X82244185Y-50285378D01*
X82093345Y-50301480D01*
X81964232Y-50337384D01*
X81822739Y-50399909D01*
X81819591Y-50401459D01*
X81515385Y-50597618D01*
X81249652Y-50861663D01*
X81026938Y-51183980D01*
X80851791Y-51554959D01*
X80728757Y-51964985D01*
X80662385Y-52404446D01*
X80657222Y-52863731D01*
X80680999Y-53115490D01*
X80764332Y-53534061D01*
X80895548Y-53914581D01*
X81068931Y-54251881D01*
X81278766Y-54540788D01*
X81519337Y-54776130D01*
X81784930Y-54952738D01*
X82069830Y-55065438D01*
X82368320Y-55109061D01*
X82674687Y-55078434D01*
X82983214Y-54968387D01*
X83125761Y-54888963D01*
X83413443Y-54662880D01*
X83656380Y-54378449D01*
X83853070Y-54045928D01*
X84002011Y-53675575D01*
X84101699Y-53277647D01*
X84150632Y-52862401D01*
X84147307Y-52440095D01*
X84090221Y-52020986D01*
X83977873Y-51615332D01*
X83808758Y-51233389D01*
X83581374Y-50885417D01*
X83565101Y-50864507D01*
X83482391Y-50751625D01*
X83432795Y-50672090D01*
X83426551Y-50642000D01*
X83439683Y-50646520D01*
X83509958Y-50691317D01*
X83621733Y-50773772D01*
X83759173Y-50881128D01*
X83906444Y-51000631D01*
X84047710Y-51119523D01*
X84167137Y-51225049D01*
X84248890Y-51304454D01*
X84331778Y-51405352D01*
X84476427Y-51624286D01*
X84630977Y-51901971D01*
X84789162Y-52223968D01*
X84944720Y-52575839D01*
X85091386Y-52943144D01*
X85222896Y-53311445D01*
X85332986Y-53666303D01*
X85415392Y-53993280D01*
X85422056Y-54025795D01*
X85457422Y-54269639D01*
X85481438Y-54566543D01*
X85494264Y-54896920D01*
X85496058Y-55241185D01*
X85486980Y-55579751D01*
X85467189Y-55893031D01*
X85436845Y-56161438D01*
X85396106Y-56365386D01*
X85381336Y-56417834D01*
X85207747Y-56939528D01*
X84996019Y-57408393D01*
X84732726Y-57850510D01*
X84404442Y-58291961D01*
X84145796Y-58598777D01*
X83836166Y-58927777D01*
X83540068Y-59192611D01*
X83246377Y-59400943D01*
X82943970Y-59560437D01*
X82621722Y-59678757D01*
X82268510Y-59763567D01*
X82006621Y-59796638D01*
X81682912Y-59809426D01*
X81340630Y-59800657D01*
X81011938Y-59771201D01*
X80729000Y-59721928D01*
X80628906Y-59697245D01*
X80194633Y-59568275D01*
X79751478Y-59404535D01*
X79312632Y-59213029D01*
X78891287Y-59000762D01*
X78500634Y-58774738D01*
X78153864Y-58541962D01*
X77864169Y-58309439D01*
X77644738Y-58084174D01*
X77438385Y-57800828D01*
X77193313Y-57357573D01*
X77001873Y-56870357D01*
X76872035Y-56357000D01*
X76855742Y-56247861D01*
X76834734Y-55994901D01*
X76825093Y-55693961D01*
X76826541Y-55368269D01*
X76838800Y-55041057D01*
X76861589Y-54735552D01*
X76894630Y-54474985D01*
X76996171Y-53956741D01*
X77183062Y-53240307D01*
X77421570Y-52517893D01*
X77703512Y-51816395D01*
X77707328Y-51807755D01*
X77798560Y-51609025D01*
X77879127Y-51460357D01*
X77967642Y-51335319D01*
X78082723Y-51207480D01*
X78242984Y-51050407D01*
X78684237Y-50670087D01*
X79178561Y-50335947D01*
X79687753Y-50084906D01*
X80212142Y-49916776D01*
X80337162Y-49888797D01*
X80504279Y-49860353D01*
X80674207Y-49845615D01*
X80874114Y-49842586D01*
X81131167Y-49849270D01*
G36*
X81131167Y-49849270D02*
G01*
X81335950Y-49860251D01*
X81573760Y-49881160D01*
X81778035Y-49907793D01*
X81923208Y-49937308D01*
X81975058Y-49952353D01*
X82138546Y-50004567D01*
X82313567Y-50065812D01*
X82481721Y-50129010D01*
X82624611Y-50187084D01*
X82723837Y-50232958D01*
X82761000Y-50259555D01*
X82756306Y-50263250D01*
X82693149Y-50272908D01*
X82571721Y-50279639D01*
X82411750Y-50282167D01*
X82244185Y-50285378D01*
X82093345Y-50301480D01*
X81964232Y-50337384D01*
X81822739Y-50399909D01*
X81819591Y-50401459D01*
X81515385Y-50597618D01*
X81249652Y-50861663D01*
X81026938Y-51183980D01*
X80851791Y-51554959D01*
X80728757Y-51964985D01*
X80662385Y-52404446D01*
X80657222Y-52863731D01*
X80680999Y-53115490D01*
X80764332Y-53534061D01*
X80895548Y-53914581D01*
X81068931Y-54251881D01*
X81278766Y-54540788D01*
X81519337Y-54776130D01*
X81784930Y-54952738D01*
X82069830Y-55065438D01*
X82368320Y-55109061D01*
X82674687Y-55078434D01*
X82983214Y-54968387D01*
X83125761Y-54888963D01*
X83413443Y-54662880D01*
X83656380Y-54378449D01*
X83853070Y-54045928D01*
X84002011Y-53675575D01*
X84101699Y-53277647D01*
X84150632Y-52862401D01*
X84147307Y-52440095D01*
X84090221Y-52020986D01*
X83977873Y-51615332D01*
X83808758Y-51233389D01*
X83581374Y-50885417D01*
X83565101Y-50864507D01*
X83482391Y-50751625D01*
X83432795Y-50672090D01*
X83426551Y-50642000D01*
X83439683Y-50646520D01*
X83509958Y-50691317D01*
X83621733Y-50773772D01*
X83759173Y-50881128D01*
X83906444Y-51000631D01*
X84047710Y-51119523D01*
X84167137Y-51225049D01*
X84248890Y-51304454D01*
X84331778Y-51405352D01*
X84476427Y-51624286D01*
X84630977Y-51901971D01*
X84789162Y-52223968D01*
X84944720Y-52575839D01*
X85091386Y-52943144D01*
X85222896Y-53311445D01*
X85332986Y-53666303D01*
X85415392Y-53993280D01*
X85422056Y-54025795D01*
X85457422Y-54269639D01*
X85481438Y-54566543D01*
X85494264Y-54896920D01*
X85496058Y-55241185D01*
X85486980Y-55579751D01*
X85467189Y-55893031D01*
X85436845Y-56161438D01*
X85396106Y-56365386D01*
X85381336Y-56417834D01*
X85207747Y-56939528D01*
X84996019Y-57408393D01*
X84732726Y-57850510D01*
X84404442Y-58291961D01*
X84145796Y-58598777D01*
X83836166Y-58927777D01*
X83540068Y-59192611D01*
X83246377Y-59400943D01*
X82943970Y-59560437D01*
X82621722Y-59678757D01*
X82268510Y-59763567D01*
X82006621Y-59796638D01*
X81682912Y-59809426D01*
X81340630Y-59800657D01*
X81011938Y-59771201D01*
X80729000Y-59721928D01*
X80628906Y-59697245D01*
X80194633Y-59568275D01*
X79751478Y-59404535D01*
X79312632Y-59213029D01*
X78891287Y-59000762D01*
X78500634Y-58774738D01*
X78153864Y-58541962D01*
X77864169Y-58309439D01*
X77644738Y-58084174D01*
X77438385Y-57800828D01*
X77193313Y-57357573D01*
X77001873Y-56870357D01*
X76872035Y-56357000D01*
X76855742Y-56247861D01*
X76834734Y-55994901D01*
X76825093Y-55693961D01*
X76826541Y-55368269D01*
X76838800Y-55041057D01*
X76861589Y-54735552D01*
X76894630Y-54474985D01*
X76996171Y-53956741D01*
X77183062Y-53240307D01*
X77421570Y-52517893D01*
X77703512Y-51816395D01*
X77707328Y-51807755D01*
X77798560Y-51609025D01*
X77879127Y-51460357D01*
X77967642Y-51335319D01*
X78082723Y-51207480D01*
X78242984Y-51050407D01*
X78684237Y-50670087D01*
X79178561Y-50335947D01*
X79687753Y-50084906D01*
X80212142Y-49916776D01*
X80337162Y-49888797D01*
X80504279Y-49860353D01*
X80674207Y-49845615D01*
X80874114Y-49842586D01*
X81131167Y-49849270D01*
G37*
%TD*%
D11*
%TO.C,REF\u002A\u002A*%
X89500000Y-30500000D03*
%TD*%
M02*
