%TF.GenerationSoftware,KiCad,Pcbnew,7.0.10*%
%TF.CreationDate,2024-01-13T02:21:11+01:00*%
%TF.ProjectId,ferris,66657272-6973-42e6-9b69-6361645f7063,rev?*%
%TF.SameCoordinates,Original*%
%TF.FileFunction,Legend,Top*%
%TF.FilePolarity,Positive*%
%FSLAX46Y46*%
G04 Gerber Fmt 4.6, Leading zero omitted, Abs format (unit mm)*
G04 Created by KiCad (PCBNEW 7.0.10) date 2024-01-13 02:21:11*
%MOMM*%
%LPD*%
G01*
G04 APERTURE LIST*
%ADD10C,0.300000*%
%ADD11C,0.150000*%
%ADD12C,0.120000*%
G04 APERTURE END LIST*
D10*
X103923558Y-69977733D02*
X105447368Y-69977733D01*
X103923558Y-62727733D02*
X105447368Y-62727733D01*
X104685463Y-63489638D02*
X104685463Y-61965828D01*
X72173558Y-70989638D02*
X72173558Y-68989638D01*
X72173558Y-68989638D02*
X72840225Y-70418209D01*
X72840225Y-70418209D02*
X73506891Y-68989638D01*
X73506891Y-68989638D02*
X73506891Y-70989638D01*
X74840224Y-68989638D02*
X75221177Y-68989638D01*
X75221177Y-68989638D02*
X75411653Y-69084876D01*
X75411653Y-69084876D02*
X75602129Y-69275352D01*
X75602129Y-69275352D02*
X75697367Y-69656304D01*
X75697367Y-69656304D02*
X75697367Y-70322971D01*
X75697367Y-70322971D02*
X75602129Y-70703923D01*
X75602129Y-70703923D02*
X75411653Y-70894400D01*
X75411653Y-70894400D02*
X75221177Y-70989638D01*
X75221177Y-70989638D02*
X74840224Y-70989638D01*
X74840224Y-70989638D02*
X74649748Y-70894400D01*
X74649748Y-70894400D02*
X74459272Y-70703923D01*
X74459272Y-70703923D02*
X74364034Y-70322971D01*
X74364034Y-70322971D02*
X74364034Y-69656304D01*
X74364034Y-69656304D02*
X74459272Y-69275352D01*
X74459272Y-69275352D02*
X74649748Y-69084876D01*
X74649748Y-69084876D02*
X74840224Y-68989638D01*
X76554510Y-70989638D02*
X76554510Y-68989638D01*
X76554510Y-68989638D02*
X77030700Y-68989638D01*
X77030700Y-68989638D02*
X77316415Y-69084876D01*
X77316415Y-69084876D02*
X77506891Y-69275352D01*
X77506891Y-69275352D02*
X77602129Y-69465828D01*
X77602129Y-69465828D02*
X77697367Y-69846780D01*
X77697367Y-69846780D02*
X77697367Y-70132495D01*
X77697367Y-70132495D02*
X77602129Y-70513447D01*
X77602129Y-70513447D02*
X77506891Y-70703923D01*
X77506891Y-70703923D02*
X77316415Y-70894400D01*
X77316415Y-70894400D02*
X77030700Y-70989638D01*
X77030700Y-70989638D02*
X76554510Y-70989638D01*
X78554510Y-69942019D02*
X79221177Y-69942019D01*
X79506891Y-70989638D02*
X78554510Y-70989638D01*
X78554510Y-70989638D02*
X78554510Y-68989638D01*
X78554510Y-68989638D02*
X79506891Y-68989638D01*
X72554510Y-61739638D02*
X72935463Y-61739638D01*
X72935463Y-61739638D02*
X73125939Y-61834876D01*
X73125939Y-61834876D02*
X73316415Y-62025352D01*
X73316415Y-62025352D02*
X73411653Y-62406304D01*
X73411653Y-62406304D02*
X73411653Y-63072971D01*
X73411653Y-63072971D02*
X73316415Y-63453923D01*
X73316415Y-63453923D02*
X73125939Y-63644400D01*
X73125939Y-63644400D02*
X72935463Y-63739638D01*
X72935463Y-63739638D02*
X72554510Y-63739638D01*
X72554510Y-63739638D02*
X72364034Y-63644400D01*
X72364034Y-63644400D02*
X72173558Y-63453923D01*
X72173558Y-63453923D02*
X72078320Y-63072971D01*
X72078320Y-63072971D02*
X72078320Y-62406304D01*
X72078320Y-62406304D02*
X72173558Y-62025352D01*
X72173558Y-62025352D02*
X72364034Y-61834876D01*
X72364034Y-61834876D02*
X72554510Y-61739638D01*
X74268796Y-63739638D02*
X74268796Y-61739638D01*
X74268796Y-61739638D02*
X75411653Y-63739638D01*
X75411653Y-63739638D02*
X75411653Y-61739638D01*
X77792605Y-61644400D02*
X76078320Y-64215828D01*
X78840224Y-61739638D02*
X79221177Y-61739638D01*
X79221177Y-61739638D02*
X79411653Y-61834876D01*
X79411653Y-61834876D02*
X79602129Y-62025352D01*
X79602129Y-62025352D02*
X79697367Y-62406304D01*
X79697367Y-62406304D02*
X79697367Y-63072971D01*
X79697367Y-63072971D02*
X79602129Y-63453923D01*
X79602129Y-63453923D02*
X79411653Y-63644400D01*
X79411653Y-63644400D02*
X79221177Y-63739638D01*
X79221177Y-63739638D02*
X78840224Y-63739638D01*
X78840224Y-63739638D02*
X78649748Y-63644400D01*
X78649748Y-63644400D02*
X78459272Y-63453923D01*
X78459272Y-63453923D02*
X78364034Y-63072971D01*
X78364034Y-63072971D02*
X78364034Y-62406304D01*
X78364034Y-62406304D02*
X78459272Y-62025352D01*
X78459272Y-62025352D02*
X78649748Y-61834876D01*
X78649748Y-61834876D02*
X78840224Y-61739638D01*
X81221177Y-62692019D02*
X80554510Y-62692019D01*
X80554510Y-63739638D02*
X80554510Y-61739638D01*
X80554510Y-61739638D02*
X81506891Y-61739638D01*
X82935463Y-62692019D02*
X82268796Y-62692019D01*
X82268796Y-63739638D02*
X82268796Y-61739638D01*
X82268796Y-61739638D02*
X83221177Y-61739638D01*
D11*
X80418902Y-64890571D02*
X80486245Y-65025258D01*
X80486245Y-65025258D02*
X80654604Y-65193616D01*
X80654604Y-65193616D02*
X80755619Y-65227288D01*
X80755619Y-65227288D02*
X80822963Y-65227288D01*
X80822963Y-65227288D02*
X80923978Y-65193616D01*
X80923978Y-65193616D02*
X80991322Y-65126273D01*
X80991322Y-65126273D02*
X81024993Y-65025258D01*
X81024993Y-65025258D02*
X81024993Y-64957914D01*
X81024993Y-64957914D02*
X80991322Y-64856899D01*
X80991322Y-64856899D02*
X80890306Y-64688540D01*
X80890306Y-64688540D02*
X80856635Y-64587525D01*
X80856635Y-64587525D02*
X80856635Y-64520181D01*
X80856635Y-64520181D02*
X80890306Y-64419166D01*
X80890306Y-64419166D02*
X80957650Y-64351823D01*
X80957650Y-64351823D02*
X81058665Y-64318151D01*
X81058665Y-64318151D02*
X81126009Y-64318151D01*
X81126009Y-64318151D02*
X81227024Y-64351823D01*
X81227024Y-64351823D02*
X81395383Y-64520181D01*
X81395383Y-64520181D02*
X81462726Y-64654868D01*
X81698428Y-64823227D02*
X82102489Y-65227288D01*
X81193352Y-65732365D02*
X81900459Y-65025258D01*
X81631085Y-66170097D02*
X82338192Y-65462991D01*
X82338192Y-65462991D02*
X82068818Y-66203769D01*
X82068818Y-66203769D02*
X82809596Y-65934395D01*
X82809596Y-65934395D02*
X82102490Y-66641502D01*
X83078970Y-66203769D02*
X83516703Y-66641502D01*
X83516703Y-66641502D02*
X83011627Y-66675174D01*
X83011627Y-66675174D02*
X83112642Y-66776189D01*
X83112642Y-66776189D02*
X83146314Y-66877204D01*
X83146314Y-66877204D02*
X83146314Y-66944548D01*
X83146314Y-66944548D02*
X83112642Y-67045563D01*
X83112642Y-67045563D02*
X82944283Y-67213922D01*
X82944283Y-67213922D02*
X82843268Y-67247593D01*
X82843268Y-67247593D02*
X82775925Y-67247593D01*
X82775925Y-67247593D02*
X82674909Y-67213922D01*
X82674909Y-67213922D02*
X82472879Y-67011891D01*
X82472879Y-67011891D02*
X82439207Y-66910876D01*
X82439207Y-66910876D02*
X82439207Y-66843532D01*
X83718734Y-66978219D02*
X83786077Y-66978219D01*
X83786077Y-66978219D02*
X83887092Y-67011891D01*
X83887092Y-67011891D02*
X84055451Y-67180250D01*
X84055451Y-67180250D02*
X84089123Y-67281265D01*
X84089123Y-67281265D02*
X84089123Y-67348609D01*
X84089123Y-67348609D02*
X84055451Y-67449624D01*
X84055451Y-67449624D02*
X83988108Y-67516967D01*
X83988108Y-67516967D02*
X83853421Y-67584311D01*
X83853421Y-67584311D02*
X83045299Y-67584311D01*
X83045299Y-67584311D02*
X83483031Y-68022044D01*
X84122795Y-68661807D02*
X83786077Y-68325090D01*
X83786077Y-68325090D02*
X84493184Y-67617983D01*
X85200291Y-68325090D02*
X85267634Y-68392433D01*
X85267634Y-68392433D02*
X85301306Y-68493448D01*
X85301306Y-68493448D02*
X85301306Y-68560792D01*
X85301306Y-68560792D02*
X85267634Y-68661807D01*
X85267634Y-68661807D02*
X85166619Y-68830166D01*
X85166619Y-68830166D02*
X84998260Y-68998525D01*
X84998260Y-68998525D02*
X84829902Y-69099540D01*
X84829902Y-69099540D02*
X84728886Y-69133212D01*
X84728886Y-69133212D02*
X84661543Y-69133212D01*
X84661543Y-69133212D02*
X84560528Y-69099540D01*
X84560528Y-69099540D02*
X84493184Y-69032196D01*
X84493184Y-69032196D02*
X84459512Y-68931181D01*
X84459512Y-68931181D02*
X84459512Y-68863838D01*
X84459512Y-68863838D02*
X84493184Y-68762822D01*
X84493184Y-68762822D02*
X84594199Y-68594464D01*
X84594199Y-68594464D02*
X84762558Y-68426105D01*
X84762558Y-68426105D02*
X84930917Y-68325090D01*
X84930917Y-68325090D02*
X85031932Y-68291418D01*
X85031932Y-68291418D02*
X85099276Y-68291418D01*
X85099276Y-68291418D02*
X85200291Y-68325090D01*
X85671695Y-68796494D02*
X86109428Y-69234227D01*
X86109428Y-69234227D02*
X85604352Y-69267899D01*
X85604352Y-69267899D02*
X85705367Y-69368914D01*
X85705367Y-69368914D02*
X85739039Y-69469929D01*
X85739039Y-69469929D02*
X85739039Y-69537273D01*
X85739039Y-69537273D02*
X85705367Y-69638288D01*
X85705367Y-69638288D02*
X85537008Y-69806647D01*
X85537008Y-69806647D02*
X85435993Y-69840319D01*
X85435993Y-69840319D02*
X85368650Y-69840319D01*
X85368650Y-69840319D02*
X85267634Y-69806647D01*
X85267634Y-69806647D02*
X85065604Y-69604616D01*
X85065604Y-69604616D02*
X85031932Y-69503601D01*
X85031932Y-69503601D02*
X85031932Y-69436257D01*
X86075757Y-70614769D02*
X85671695Y-70210708D01*
X85873726Y-70412738D02*
X86580833Y-69705632D01*
X86580833Y-69705632D02*
X86412474Y-69739303D01*
X86412474Y-69739303D02*
X86277787Y-69739303D01*
X86277787Y-69739303D02*
X86176772Y-69705632D01*
X81906857Y-67375883D02*
X81873185Y-67274868D01*
X81873185Y-67274868D02*
X81772170Y-67173853D01*
X81772170Y-67173853D02*
X81637483Y-67106509D01*
X81637483Y-67106509D02*
X81502796Y-67106509D01*
X81502796Y-67106509D02*
X81401781Y-67140181D01*
X81401781Y-67140181D02*
X81233422Y-67241196D01*
X81233422Y-67241196D02*
X81132407Y-67342212D01*
X81132407Y-67342212D02*
X81031391Y-67510570D01*
X81031391Y-67510570D02*
X80997720Y-67611586D01*
X80997720Y-67611586D02*
X80997720Y-67746273D01*
X80997720Y-67746273D02*
X81065063Y-67880960D01*
X81065063Y-67880960D02*
X81132407Y-67948303D01*
X81132407Y-67948303D02*
X81267094Y-68015647D01*
X81267094Y-68015647D02*
X81334437Y-68015647D01*
X81334437Y-68015647D02*
X81570140Y-67779944D01*
X81570140Y-67779944D02*
X81435453Y-67645257D01*
X82580292Y-67981975D02*
X82445605Y-67847288D01*
X82445605Y-67847288D02*
X82344590Y-67813616D01*
X82344590Y-67813616D02*
X82277246Y-67813616D01*
X82277246Y-67813616D02*
X82108888Y-67847288D01*
X82108888Y-67847288D02*
X81940529Y-67948303D01*
X81940529Y-67948303D02*
X81671155Y-68217677D01*
X81671155Y-68217677D02*
X81637483Y-68318692D01*
X81637483Y-68318692D02*
X81637483Y-68386036D01*
X81637483Y-68386036D02*
X81671155Y-68487051D01*
X81671155Y-68487051D02*
X81805842Y-68621738D01*
X81805842Y-68621738D02*
X81906857Y-68655410D01*
X81906857Y-68655410D02*
X81974201Y-68655410D01*
X81974201Y-68655410D02*
X82075216Y-68621738D01*
X82075216Y-68621738D02*
X82243575Y-68453379D01*
X82243575Y-68453379D02*
X82277246Y-68352364D01*
X82277246Y-68352364D02*
X82277246Y-68285021D01*
X82277246Y-68285021D02*
X82243575Y-68184005D01*
X82243575Y-68184005D02*
X82108888Y-68049318D01*
X82108888Y-68049318D02*
X82007872Y-68015647D01*
X82007872Y-68015647D02*
X81940529Y-68015647D01*
X81940529Y-68015647D02*
X81839514Y-68049318D01*
X82950681Y-68352364D02*
X82378262Y-68924784D01*
X82378262Y-68924784D02*
X82344590Y-69025799D01*
X82344590Y-69025799D02*
X82344590Y-69093143D01*
X82344590Y-69093143D02*
X82378262Y-69194158D01*
X82378262Y-69194158D02*
X82512949Y-69328845D01*
X82512949Y-69328845D02*
X82613964Y-69362517D01*
X82613964Y-69362517D02*
X82681307Y-69362517D01*
X82681307Y-69362517D02*
X82782323Y-69328845D01*
X82782323Y-69328845D02*
X83354742Y-68756425D01*
X83994506Y-69396188D02*
X83859819Y-69261501D01*
X83859819Y-69261501D02*
X83758803Y-69227830D01*
X83758803Y-69227830D02*
X83691460Y-69227830D01*
X83691460Y-69227830D02*
X83523101Y-69261501D01*
X83523101Y-69261501D02*
X83354742Y-69362517D01*
X83354742Y-69362517D02*
X83085368Y-69631891D01*
X83085368Y-69631891D02*
X83051697Y-69732906D01*
X83051697Y-69732906D02*
X83051697Y-69800249D01*
X83051697Y-69800249D02*
X83085368Y-69901265D01*
X83085368Y-69901265D02*
X83220055Y-70035952D01*
X83220055Y-70035952D02*
X83321071Y-70069623D01*
X83321071Y-70069623D02*
X83388414Y-70069623D01*
X83388414Y-70069623D02*
X83489429Y-70035952D01*
X83489429Y-70035952D02*
X83657788Y-69867593D01*
X83657788Y-69867593D02*
X83691460Y-69766578D01*
X83691460Y-69766578D02*
X83691460Y-69699234D01*
X83691460Y-69699234D02*
X83657788Y-69598219D01*
X83657788Y-69598219D02*
X83523101Y-69463532D01*
X83523101Y-69463532D02*
X83422086Y-69429860D01*
X83422086Y-69429860D02*
X83354742Y-69429860D01*
X83354742Y-69429860D02*
X83253727Y-69463532D01*
X84677800Y-74289160D02*
X84630180Y-74432017D01*
X84630180Y-74432017D02*
X84630180Y-74670112D01*
X84630180Y-74670112D02*
X84677800Y-74765350D01*
X84677800Y-74765350D02*
X84725419Y-74812969D01*
X84725419Y-74812969D02*
X84820657Y-74860588D01*
X84820657Y-74860588D02*
X84915895Y-74860588D01*
X84915895Y-74860588D02*
X85011133Y-74812969D01*
X85011133Y-74812969D02*
X85058752Y-74765350D01*
X85058752Y-74765350D02*
X85106371Y-74670112D01*
X85106371Y-74670112D02*
X85153990Y-74479636D01*
X85153990Y-74479636D02*
X85201609Y-74384398D01*
X85201609Y-74384398D02*
X85249228Y-74336779D01*
X85249228Y-74336779D02*
X85344466Y-74289160D01*
X85344466Y-74289160D02*
X85439704Y-74289160D01*
X85439704Y-74289160D02*
X85534942Y-74336779D01*
X85534942Y-74336779D02*
X85582561Y-74384398D01*
X85582561Y-74384398D02*
X85630180Y-74479636D01*
X85630180Y-74479636D02*
X85630180Y-74717731D01*
X85630180Y-74717731D02*
X85582561Y-74860588D01*
X85630180Y-75193922D02*
X84630180Y-75432017D01*
X84630180Y-75432017D02*
X85344466Y-75622493D01*
X85344466Y-75622493D02*
X84630180Y-75812969D01*
X84630180Y-75812969D02*
X85630180Y-76051065D01*
X84630180Y-76432017D02*
X85630180Y-76432017D01*
X85630180Y-76432017D02*
X85630180Y-76670112D01*
X85630180Y-76670112D02*
X85582561Y-76812969D01*
X85582561Y-76812969D02*
X85487323Y-76908207D01*
X85487323Y-76908207D02*
X85392085Y-76955826D01*
X85392085Y-76955826D02*
X85201609Y-77003445D01*
X85201609Y-77003445D02*
X85058752Y-77003445D01*
X85058752Y-77003445D02*
X84868276Y-76955826D01*
X84868276Y-76955826D02*
X84773038Y-76908207D01*
X84773038Y-76908207D02*
X84677800Y-76812969D01*
X84677800Y-76812969D02*
X84630180Y-76670112D01*
X84630180Y-76670112D02*
X84630180Y-76432017D01*
X84630180Y-77432017D02*
X85630180Y-77432017D01*
X85630180Y-78098683D02*
X85630180Y-78289159D01*
X85630180Y-78289159D02*
X85582561Y-78384397D01*
X85582561Y-78384397D02*
X85487323Y-78479635D01*
X85487323Y-78479635D02*
X85296847Y-78527254D01*
X85296847Y-78527254D02*
X84963514Y-78527254D01*
X84963514Y-78527254D02*
X84773038Y-78479635D01*
X84773038Y-78479635D02*
X84677800Y-78384397D01*
X84677800Y-78384397D02*
X84630180Y-78289159D01*
X84630180Y-78289159D02*
X84630180Y-78098683D01*
X84630180Y-78098683D02*
X84677800Y-78003445D01*
X84677800Y-78003445D02*
X84773038Y-77908207D01*
X84773038Y-77908207D02*
X84963514Y-77860588D01*
X84963514Y-77860588D02*
X85296847Y-77860588D01*
X85296847Y-77860588D02*
X85487323Y-77908207D01*
X85487323Y-77908207D02*
X85582561Y-78003445D01*
X85582561Y-78003445D02*
X85630180Y-78098683D01*
X91082561Y-74860588D02*
X91130180Y-74765350D01*
X91130180Y-74765350D02*
X91130180Y-74622493D01*
X91130180Y-74622493D02*
X91082561Y-74479636D01*
X91082561Y-74479636D02*
X90987323Y-74384398D01*
X90987323Y-74384398D02*
X90892085Y-74336779D01*
X90892085Y-74336779D02*
X90701609Y-74289160D01*
X90701609Y-74289160D02*
X90558752Y-74289160D01*
X90558752Y-74289160D02*
X90368276Y-74336779D01*
X90368276Y-74336779D02*
X90273038Y-74384398D01*
X90273038Y-74384398D02*
X90177800Y-74479636D01*
X90177800Y-74479636D02*
X90130180Y-74622493D01*
X90130180Y-74622493D02*
X90130180Y-74717731D01*
X90130180Y-74717731D02*
X90177800Y-74860588D01*
X90177800Y-74860588D02*
X90225419Y-74908207D01*
X90225419Y-74908207D02*
X90558752Y-74908207D01*
X90558752Y-74908207D02*
X90558752Y-74717731D01*
X90130180Y-75336779D02*
X91130180Y-75336779D01*
X91130180Y-75336779D02*
X90130180Y-75908207D01*
X90130180Y-75908207D02*
X91130180Y-75908207D01*
X90130180Y-76384398D02*
X91130180Y-76384398D01*
X91130180Y-76384398D02*
X91130180Y-76622493D01*
X91130180Y-76622493D02*
X91082561Y-76765350D01*
X91082561Y-76765350D02*
X90987323Y-76860588D01*
X90987323Y-76860588D02*
X90892085Y-76908207D01*
X90892085Y-76908207D02*
X90701609Y-76955826D01*
X90701609Y-76955826D02*
X90558752Y-76955826D01*
X90558752Y-76955826D02*
X90368276Y-76908207D01*
X90368276Y-76908207D02*
X90273038Y-76860588D01*
X90273038Y-76860588D02*
X90177800Y-76765350D01*
X90177800Y-76765350D02*
X90130180Y-76622493D01*
X90130180Y-76622493D02*
X90130180Y-76384398D01*
X86677800Y-74289160D02*
X86630180Y-74432017D01*
X86630180Y-74432017D02*
X86630180Y-74670112D01*
X86630180Y-74670112D02*
X86677800Y-74765350D01*
X86677800Y-74765350D02*
X86725419Y-74812969D01*
X86725419Y-74812969D02*
X86820657Y-74860588D01*
X86820657Y-74860588D02*
X86915895Y-74860588D01*
X86915895Y-74860588D02*
X87011133Y-74812969D01*
X87011133Y-74812969D02*
X87058752Y-74765350D01*
X87058752Y-74765350D02*
X87106371Y-74670112D01*
X87106371Y-74670112D02*
X87153990Y-74479636D01*
X87153990Y-74479636D02*
X87201609Y-74384398D01*
X87201609Y-74384398D02*
X87249228Y-74336779D01*
X87249228Y-74336779D02*
X87344466Y-74289160D01*
X87344466Y-74289160D02*
X87439704Y-74289160D01*
X87439704Y-74289160D02*
X87534942Y-74336779D01*
X87534942Y-74336779D02*
X87582561Y-74384398D01*
X87582561Y-74384398D02*
X87630180Y-74479636D01*
X87630180Y-74479636D02*
X87630180Y-74717731D01*
X87630180Y-74717731D02*
X87582561Y-74860588D01*
X87630180Y-75193922D02*
X86630180Y-75432017D01*
X86630180Y-75432017D02*
X87344466Y-75622493D01*
X87344466Y-75622493D02*
X86630180Y-75812969D01*
X86630180Y-75812969D02*
X87630180Y-76051065D01*
X86725419Y-77003445D02*
X86677800Y-76955826D01*
X86677800Y-76955826D02*
X86630180Y-76812969D01*
X86630180Y-76812969D02*
X86630180Y-76717731D01*
X86630180Y-76717731D02*
X86677800Y-76574874D01*
X86677800Y-76574874D02*
X86773038Y-76479636D01*
X86773038Y-76479636D02*
X86868276Y-76432017D01*
X86868276Y-76432017D02*
X87058752Y-76384398D01*
X87058752Y-76384398D02*
X87201609Y-76384398D01*
X87201609Y-76384398D02*
X87392085Y-76432017D01*
X87392085Y-76432017D02*
X87487323Y-76479636D01*
X87487323Y-76479636D02*
X87582561Y-76574874D01*
X87582561Y-76574874D02*
X87630180Y-76717731D01*
X87630180Y-76717731D02*
X87630180Y-76812969D01*
X87630180Y-76812969D02*
X87582561Y-76955826D01*
X87582561Y-76955826D02*
X87534942Y-77003445D01*
X86630180Y-77908207D02*
X86630180Y-77432017D01*
X86630180Y-77432017D02*
X87630180Y-77432017D01*
X86630180Y-78241541D02*
X87630180Y-78241541D01*
X86630180Y-78812969D02*
X87201609Y-78384398D01*
X87630180Y-78812969D02*
X87058752Y-78241541D01*
X93130180Y-74241541D02*
X93130180Y-74860588D01*
X93130180Y-74860588D02*
X92749228Y-74527255D01*
X92749228Y-74527255D02*
X92749228Y-74670112D01*
X92749228Y-74670112D02*
X92701609Y-74765350D01*
X92701609Y-74765350D02*
X92653990Y-74812969D01*
X92653990Y-74812969D02*
X92558752Y-74860588D01*
X92558752Y-74860588D02*
X92320657Y-74860588D01*
X92320657Y-74860588D02*
X92225419Y-74812969D01*
X92225419Y-74812969D02*
X92177800Y-74765350D01*
X92177800Y-74765350D02*
X92130180Y-74670112D01*
X92130180Y-74670112D02*
X92130180Y-74384398D01*
X92130180Y-74384398D02*
X92177800Y-74289160D01*
X92177800Y-74289160D02*
X92225419Y-74241541D01*
X92225419Y-75289160D02*
X92177800Y-75336779D01*
X92177800Y-75336779D02*
X92130180Y-75289160D01*
X92130180Y-75289160D02*
X92177800Y-75241541D01*
X92177800Y-75241541D02*
X92225419Y-75289160D01*
X92225419Y-75289160D02*
X92130180Y-75289160D01*
X93130180Y-75670112D02*
X93130180Y-76289159D01*
X93130180Y-76289159D02*
X92749228Y-75955826D01*
X92749228Y-75955826D02*
X92749228Y-76098683D01*
X92749228Y-76098683D02*
X92701609Y-76193921D01*
X92701609Y-76193921D02*
X92653990Y-76241540D01*
X92653990Y-76241540D02*
X92558752Y-76289159D01*
X92558752Y-76289159D02*
X92320657Y-76289159D01*
X92320657Y-76289159D02*
X92225419Y-76241540D01*
X92225419Y-76241540D02*
X92177800Y-76193921D01*
X92177800Y-76193921D02*
X92130180Y-76098683D01*
X92130180Y-76098683D02*
X92130180Y-75812969D01*
X92130180Y-75812969D02*
X92177800Y-75717731D01*
X92177800Y-75717731D02*
X92225419Y-75670112D01*
D12*
%TO.C,SW4*%
X107250000Y-69000000D02*
X107250000Y-71000000D01*
X108250000Y-67700000D02*
X108700000Y-67250000D01*
X108250000Y-72300000D02*
X108700000Y-72750000D01*
X108700000Y-67250000D02*
X111300000Y-67250000D01*
X108700000Y-72750000D02*
X111300000Y-72750000D01*
X111750000Y-67700000D02*
X111300000Y-67250000D01*
X111750000Y-72300000D02*
X111300000Y-72750000D01*
X112750000Y-69000000D02*
X112750000Y-71000000D01*
%TO.C,SW3*%
X107250000Y-61500000D02*
X107250000Y-63500000D01*
X108250000Y-60200000D02*
X108700000Y-59750000D01*
X108250000Y-64800000D02*
X108700000Y-65250000D01*
X108700000Y-59750000D02*
X111300000Y-59750000D01*
X108700000Y-65250000D02*
X111300000Y-65250000D01*
X111750000Y-60200000D02*
X111300000Y-59750000D01*
X111750000Y-64800000D02*
X111300000Y-65250000D01*
X112750000Y-61500000D02*
X112750000Y-63500000D01*
%TO.C,C1*%
X74607836Y-53610000D02*
X74392164Y-53610000D01*
X74607836Y-52890000D02*
X74392164Y-52890000D01*
%TO.C,C7*%
X90607836Y-68740000D02*
X90392164Y-68740000D01*
X90607836Y-69460000D02*
X90392164Y-69460000D01*
%TO.C,C6*%
X92260000Y-65307836D02*
X92260000Y-65092164D01*
X91540000Y-65307836D02*
X91540000Y-65092164D01*
%TO.C,C5*%
X85960000Y-65307836D02*
X85960000Y-65092164D01*
X85240000Y-65307836D02*
X85240000Y-65092164D01*
%TO.C,D1*%
X94000000Y-58000000D02*
X94500000Y-58000000D01*
X97500000Y-58000000D02*
X96500000Y-58000000D01*
X94000000Y-56000000D02*
X94500000Y-56000000D01*
X94500000Y-56000000D02*
X94750000Y-55750000D01*
X97000000Y-56000000D02*
X97500000Y-56000000D01*
X97000000Y-56000000D02*
X96750000Y-55750000D01*
X95100000Y-58000000D02*
G75*
G03*
X94900000Y-58000000I-100000J0D01*
G01*
X94900000Y-58000000D02*
G75*
G03*
X95100000Y-58000000I100000J0D01*
G01*
%TO.C,R1*%
X94880000Y-59346359D02*
X94880000Y-59653641D01*
X94120000Y-59346359D02*
X94120000Y-59653641D01*
%TO.C,R4*%
X81380000Y-59346359D02*
X81380000Y-59653641D01*
X80620000Y-59346359D02*
X80620000Y-59653641D01*
%TO.C,R2*%
X96130000Y-59346359D02*
X96130000Y-59653641D01*
X95370000Y-59346359D02*
X95370000Y-59653641D01*
%TO.C,D3*%
X74150000Y-50760000D02*
X75850000Y-50760000D01*
X74150000Y-50760000D02*
X74150000Y-47500000D01*
X75850000Y-50760000D02*
X75850000Y-47500000D01*
%TO.C,R3*%
X80130000Y-59346359D02*
X80130000Y-59653641D01*
X79370000Y-59346359D02*
X79370000Y-59653641D01*
%TO.C,D2*%
X79250000Y-58000000D02*
X79750000Y-58000000D01*
X82750000Y-58000000D02*
X81750000Y-58000000D01*
X79250000Y-56000000D02*
X79750000Y-56000000D01*
X79750000Y-56000000D02*
X80000000Y-55750000D01*
X82250000Y-56000000D02*
X82750000Y-56000000D01*
X82250000Y-56000000D02*
X82000000Y-55750000D01*
X80350000Y-58000000D02*
G75*
G03*
X80150000Y-58000000I-100000J0D01*
G01*
X80150000Y-58000000D02*
G75*
G03*
X80350000Y-58000000I100000J0D01*
G01*
%TO.C,SW1*%
X64750000Y-61500000D02*
X64750000Y-63500000D01*
X65750000Y-60200000D02*
X66200000Y-59750000D01*
X65750000Y-64800000D02*
X66200000Y-65250000D01*
X66200000Y-59750000D02*
X68800000Y-59750000D01*
X66200000Y-65250000D02*
X68800000Y-65250000D01*
X69250000Y-60200000D02*
X68800000Y-59750000D01*
X69250000Y-64800000D02*
X68800000Y-65250000D01*
X70250000Y-61500000D02*
X70250000Y-63500000D01*
%TO.C,C4*%
X74627836Y-52360000D02*
X74412164Y-52360000D01*
X74627836Y-51640000D02*
X74412164Y-51640000D01*
%TO.C,SW2*%
X64750000Y-69000000D02*
X64750000Y-71000000D01*
X65750000Y-67700000D02*
X66200000Y-67250000D01*
X65750000Y-72300000D02*
X66200000Y-72750000D01*
X66200000Y-67250000D02*
X68800000Y-67250000D01*
X66200000Y-72750000D02*
X68800000Y-72750000D01*
X69250000Y-67700000D02*
X68800000Y-67250000D01*
X69250000Y-72300000D02*
X68800000Y-72750000D01*
X70250000Y-69000000D02*
X70250000Y-71000000D01*
%TO.C,U1*%
X90860000Y-63827500D02*
X90860000Y-64052500D01*
X90635000Y-68047500D02*
X90860000Y-68047500D01*
X90635000Y-63827500D02*
X90860000Y-63827500D01*
X86865000Y-68047500D02*
X86640000Y-68047500D01*
X86865000Y-63827500D02*
X86640000Y-63827500D01*
X86640000Y-68047500D02*
X86640000Y-67822500D01*
X86640000Y-63827500D02*
X86640000Y-64052500D01*
%TO.C,BT1*%
X83500000Y-34950001D02*
G75*
G03*
X80174757Y-35911831I-1310000J-1699999D01*
G01*
X98840000Y-35920000D02*
G75*
G03*
X95503354Y-34933470I-2030000J-730001D01*
G01*
X78720000Y-39870000D02*
X80160000Y-35920000D01*
X78720000Y-40500000D02*
X78720000Y-39870000D01*
X78720000Y-48960000D02*
X78720000Y-46500000D01*
X80800000Y-51040000D02*
X78720000Y-48960000D01*
X80800000Y-51040000D02*
X84300000Y-51040000D01*
X94700000Y-51040000D02*
X98200000Y-51040000D01*
X98200000Y-51040000D02*
X100280000Y-48960000D01*
X100280000Y-39870000D02*
X98840000Y-35920000D01*
X100280000Y-40500000D02*
X100280000Y-39870000D01*
X100280000Y-48960000D02*
X100280000Y-46500000D01*
%TD*%
M02*
