%TF.GenerationSoftware,KiCad,Pcbnew,7.0.10*%
%TF.CreationDate,2024-01-13T02:21:11+01:00*%
%TF.ProjectId,ferris,66657272-6973-42e6-9b69-6361645f7063,rev?*%
%TF.SameCoordinates,Original*%
%TF.FileFunction,Legend,Bot*%
%TF.FilePolarity,Positive*%
%FSLAX46Y46*%
G04 Gerber Fmt 4.6, Leading zero omitted, Abs format (unit mm)*
G04 Created by KiCad (PCBNEW 7.0.10) date 2024-01-13 02:21:11*
%MOMM*%
%LPD*%
G01*
G04 APERTURE LIST*
%ADD10C,0.010000*%
G04 APERTURE END LIST*
%TO.C,Ref\u002A\u002A*%
D10*
X119125334Y-84170000D02*
X59054334Y-84170000D01*
X59054334Y-72147334D01*
X119125334Y-72147334D01*
X119125334Y-84170000D01*
G36*
X119125334Y-84170000D02*
G01*
X59054334Y-84170000D01*
X59054334Y-72147334D01*
X119125334Y-72147334D01*
X119125334Y-84170000D01*
G37*
X97782619Y-50244083D02*
X97926101Y-50262770D01*
X98058388Y-50304141D01*
X98216762Y-50376437D01*
X98508794Y-50561164D01*
X98786242Y-50825527D01*
X99025399Y-51151554D01*
X99218995Y-51529244D01*
X99359755Y-51948591D01*
X99372204Y-52001439D01*
X99413011Y-52258528D01*
X99437362Y-52559803D01*
X99444341Y-52873897D01*
X99433033Y-53169440D01*
X99402525Y-53415062D01*
X99360525Y-53592108D01*
X99269824Y-53875965D01*
X99157198Y-54156627D01*
X99037756Y-54393562D01*
X98932208Y-54553714D01*
X98703612Y-54815040D01*
X98437578Y-55035361D01*
X98152241Y-55200695D01*
X97865736Y-55297061D01*
X97593955Y-55318486D01*
X97281779Y-55272229D01*
X96972982Y-55159024D01*
X96684816Y-54985372D01*
X96434534Y-54757775D01*
X96398263Y-54716187D01*
X96157999Y-54377826D01*
X95974436Y-54001649D01*
X95846316Y-53597731D01*
X95772384Y-53176146D01*
X95751382Y-52746970D01*
X95782055Y-52320277D01*
X95863147Y-51906142D01*
X95993400Y-51514638D01*
X96171559Y-51155842D01*
X96396367Y-50839826D01*
X96666568Y-50576666D01*
X96980905Y-50376437D01*
X97134255Y-50306157D01*
X97266834Y-50263816D01*
X97409266Y-50244456D01*
X97598834Y-50239834D01*
X97782619Y-50244083D01*
G36*
X97782619Y-50244083D02*
G01*
X97926101Y-50262770D01*
X98058388Y-50304141D01*
X98216762Y-50376437D01*
X98508794Y-50561164D01*
X98786242Y-50825527D01*
X99025399Y-51151554D01*
X99218995Y-51529244D01*
X99359755Y-51948591D01*
X99372204Y-52001439D01*
X99413011Y-52258528D01*
X99437362Y-52559803D01*
X99444341Y-52873897D01*
X99433033Y-53169440D01*
X99402525Y-53415062D01*
X99360525Y-53592108D01*
X99269824Y-53875965D01*
X99157198Y-54156627D01*
X99037756Y-54393562D01*
X98932208Y-54553714D01*
X98703612Y-54815040D01*
X98437578Y-55035361D01*
X98152241Y-55200695D01*
X97865736Y-55297061D01*
X97593955Y-55318486D01*
X97281779Y-55272229D01*
X96972982Y-55159024D01*
X96684816Y-54985372D01*
X96434534Y-54757775D01*
X96398263Y-54716187D01*
X96157999Y-54377826D01*
X95974436Y-54001649D01*
X95846316Y-53597731D01*
X95772384Y-53176146D01*
X95751382Y-52746970D01*
X95782055Y-52320277D01*
X95863147Y-51906142D01*
X95993400Y-51514638D01*
X96171559Y-51155842D01*
X96396367Y-50839826D01*
X96666568Y-50576666D01*
X96980905Y-50376437D01*
X97134255Y-50306157D01*
X97266834Y-50263816D01*
X97409266Y-50244456D01*
X97598834Y-50239834D01*
X97782619Y-50244083D01*
G37*
X82444115Y-50239934D02*
X82630696Y-50245187D01*
X82768608Y-50262526D01*
X82888012Y-50297630D01*
X83019070Y-50356177D01*
X83240209Y-50493583D01*
X83492362Y-50721973D01*
X83718222Y-51005387D01*
X83903124Y-51327708D01*
X83941706Y-51412468D01*
X84088538Y-51829136D01*
X84174616Y-52256828D01*
X84202799Y-52686611D01*
X84175946Y-53109549D01*
X84096914Y-53516710D01*
X83968564Y-53899157D01*
X83793754Y-54247957D01*
X83575343Y-54554176D01*
X83316189Y-54808880D01*
X83019152Y-55003133D01*
X82687090Y-55128002D01*
X82585056Y-55147113D01*
X82304718Y-55147350D01*
X82008138Y-55083176D01*
X81715389Y-54960159D01*
X81446538Y-54783866D01*
X81291465Y-54634125D01*
X81103086Y-54386897D01*
X80931000Y-54091380D01*
X80786635Y-53767704D01*
X80681418Y-53436000D01*
X80671695Y-53392522D01*
X80641926Y-53175507D01*
X80626248Y-52908329D01*
X80624370Y-52617571D01*
X80635999Y-52329819D01*
X80660844Y-52071656D01*
X80698614Y-51869667D01*
X80703576Y-51851356D01*
X80840128Y-51464372D01*
X81024690Y-51109193D01*
X81247945Y-50798865D01*
X81500578Y-50546429D01*
X81773272Y-50364932D01*
X81824329Y-50339569D01*
X81947339Y-50286916D01*
X82064363Y-50256751D01*
X82205579Y-50243061D01*
X82401167Y-50239834D01*
X82444115Y-50239934D01*
G36*
X82444115Y-50239934D02*
G01*
X82630696Y-50245187D01*
X82768608Y-50262526D01*
X82888012Y-50297630D01*
X83019070Y-50356177D01*
X83240209Y-50493583D01*
X83492362Y-50721973D01*
X83718222Y-51005387D01*
X83903124Y-51327708D01*
X83941706Y-51412468D01*
X84088538Y-51829136D01*
X84174616Y-52256828D01*
X84202799Y-52686611D01*
X84175946Y-53109549D01*
X84096914Y-53516710D01*
X83968564Y-53899157D01*
X83793754Y-54247957D01*
X83575343Y-54554176D01*
X83316189Y-54808880D01*
X83019152Y-55003133D01*
X82687090Y-55128002D01*
X82585056Y-55147113D01*
X82304718Y-55147350D01*
X82008138Y-55083176D01*
X81715389Y-54960159D01*
X81446538Y-54783866D01*
X81291465Y-54634125D01*
X81103086Y-54386897D01*
X80931000Y-54091380D01*
X80786635Y-53767704D01*
X80681418Y-53436000D01*
X80671695Y-53392522D01*
X80641926Y-53175507D01*
X80626248Y-52908329D01*
X80624370Y-52617571D01*
X80635999Y-52329819D01*
X80660844Y-52071656D01*
X80698614Y-51869667D01*
X80703576Y-51851356D01*
X80840128Y-51464372D01*
X81024690Y-51109193D01*
X81247945Y-50798865D01*
X81500578Y-50546429D01*
X81773272Y-50364932D01*
X81824329Y-50339569D01*
X81947339Y-50286916D01*
X82064363Y-50256751D01*
X82205579Y-50243061D01*
X82401167Y-50239834D01*
X82444115Y-50239934D01*
G37*
%TD*%
M02*
