%TF.GenerationSoftware,KiCad,Pcbnew,7.0.10*%
%TF.CreationDate,2024-01-13T02:21:11+01:00*%
%TF.ProjectId,ferris,66657272-6973-42e6-9b69-6361645f7063,rev?*%
%TF.SameCoordinates,Original*%
%TF.FileFunction,Soldermask,Top*%
%TF.FilePolarity,Negative*%
%FSLAX46Y46*%
G04 Gerber Fmt 4.6, Leading zero omitted, Abs format (unit mm)*
G04 Created by KiCad (PCBNEW 7.0.10) date 2024-01-13 02:21:11*
%MOMM*%
%LPD*%
G01*
G04 APERTURE LIST*
G04 Aperture macros list*
%AMRoundRect*
0 Rectangle with rounded corners*
0 $1 Rounding radius*
0 $2 $3 $4 $5 $6 $7 $8 $9 X,Y pos of 4 corners*
0 Add a 4 corners polygon primitive as box body*
4,1,4,$2,$3,$4,$5,$6,$7,$8,$9,$2,$3,0*
0 Add four circle primitives for the rounded corners*
1,1,$1+$1,$2,$3*
1,1,$1+$1,$4,$5*
1,1,$1+$1,$6,$7*
1,1,$1+$1,$8,$9*
0 Add four rect primitives between the rounded corners*
20,1,$1+$1,$2,$3,$4,$5,0*
20,1,$1+$1,$4,$5,$6,$7,0*
20,1,$1+$1,$6,$7,$8,$9,0*
20,1,$1+$1,$8,$9,$2,$3,0*%
%AMFreePoly0*
4,1,14,0.230680,0.111820,0.364320,-0.021821,0.377500,-0.053642,0.377500,-0.080000,0.364320,-0.111820,0.332500,-0.125000,-0.332500,-0.125000,-0.364320,-0.111820,-0.377500,-0.080000,-0.377500,0.080000,-0.364320,0.111820,-0.332500,0.125000,0.198860,0.125000,0.230680,0.111820,0.230680,0.111820,$1*%
%AMFreePoly1*
4,1,14,0.364320,0.111820,0.377500,0.080000,0.377501,0.053640,0.364318,0.021819,0.230680,-0.111820,0.198860,-0.125000,-0.332500,-0.125000,-0.364320,-0.111820,-0.377500,-0.080000,-0.377500,0.080000,-0.364320,0.111820,-0.332500,0.125000,0.332500,0.125000,0.364320,0.111820,0.364320,0.111820,$1*%
%AMFreePoly2*
4,1,15,0.053642,0.377500,0.080000,0.377500,0.111820,0.364320,0.125000,0.332500,0.125000,-0.332500,0.111820,-0.364320,0.080000,-0.377500,-0.080000,-0.377500,-0.111820,-0.364320,-0.125000,-0.332500,-0.125000,0.198860,-0.111820,0.230680,0.021820,0.364320,0.053640,0.377501,0.053642,0.377500,0.053642,0.377500,$1*%
%AMFreePoly3*
4,1,14,-0.021820,0.364320,0.111820,0.230679,0.125001,0.198860,0.125000,-0.332500,0.111820,-0.364320,0.080000,-0.377500,-0.080000,-0.377500,-0.111820,-0.364320,-0.125000,-0.332500,-0.125000,0.332500,-0.111820,0.364320,-0.080000,0.377500,-0.053640,0.377500,-0.021820,0.364320,-0.021820,0.364320,$1*%
%AMFreePoly4*
4,1,14,0.364320,0.111820,0.377500,0.080000,0.377500,-0.080000,0.364320,-0.111820,0.332500,-0.125000,-0.198860,-0.125001,-0.230680,-0.111818,-0.364320,0.021820,-0.377500,0.053640,-0.377500,0.080000,-0.364320,0.111820,-0.332500,0.125000,0.332500,0.125000,0.364320,0.111820,0.364320,0.111820,$1*%
%AMFreePoly5*
4,1,15,-0.198858,0.125000,0.332500,0.125000,0.364320,0.111820,0.377500,0.080000,0.377500,-0.080000,0.364320,-0.111820,0.332500,-0.125000,-0.332500,-0.125000,-0.364320,-0.111820,-0.377500,-0.080000,-0.377500,-0.053640,-0.364320,-0.021820,-0.230680,0.111820,-0.198860,0.125001,-0.198858,0.125000,-0.198858,0.125000,$1*%
%AMFreePoly6*
4,1,14,0.111820,0.364320,0.125000,0.332500,0.125001,-0.198860,0.111818,-0.230680,-0.021820,-0.364320,-0.053640,-0.377500,-0.080000,-0.377500,-0.111820,-0.364320,-0.125000,-0.332500,-0.125000,0.332500,-0.111820,0.364320,-0.080000,0.377500,0.080000,0.377500,0.111820,0.364320,0.111820,0.364320,$1*%
%AMFreePoly7*
4,1,14,0.111820,0.364320,0.125000,0.332500,0.125000,-0.332500,0.111820,-0.364320,0.080000,-0.377500,0.053640,-0.377501,0.021819,-0.364318,-0.111820,-0.230680,-0.125000,-0.198860,-0.125000,0.332500,-0.111820,0.364320,-0.080000,0.377500,0.080000,0.377500,0.111820,0.364320,0.111820,0.364320,$1*%
G04 Aperture macros list end*
%ADD10C,0.150000*%
%ADD11R,1.000000X0.750000*%
%ADD12RoundRect,0.140000X0.140000X0.170000X-0.140000X0.170000X-0.140000X-0.170000X0.140000X-0.170000X0*%
%ADD13RoundRect,0.140000X0.170000X-0.140000X0.170000X0.140000X-0.170000X0.140000X-0.170000X-0.140000X0*%
%ADD14RoundRect,0.250000X0.750000X-0.250000X0.750000X0.250000X-0.750000X0.250000X-0.750000X-0.250000X0*%
%ADD15C,3.200000*%
%ADD16R,0.750000X1.500000*%
%ADD17R,0.900000X0.900000*%
%ADD18RoundRect,0.135000X-0.185000X0.135000X-0.185000X-0.135000X0.185000X-0.135000X0.185000X0.135000X0*%
%ADD19RoundRect,0.250000X-0.250000X-0.750000X0.250000X-0.750000X0.250000X0.750000X-0.250000X0.750000X0*%
%ADD20RoundRect,0.250000X0.250000X0.750000X-0.250000X0.750000X-0.250000X-0.750000X0.250000X-0.750000X0*%
%ADD21RoundRect,0.250000X0.250000X-0.250000X0.250000X0.250000X-0.250000X0.250000X-0.250000X-0.250000X0*%
%ADD22FreePoly0,180.000000*%
%ADD23RoundRect,0.062500X0.375000X0.062500X-0.375000X0.062500X-0.375000X-0.062500X0.375000X-0.062500X0*%
%ADD24FreePoly1,180.000000*%
%ADD25FreePoly2,180.000000*%
%ADD26RoundRect,0.062500X0.062500X0.375000X-0.062500X0.375000X-0.062500X-0.375000X0.062500X-0.375000X0*%
%ADD27FreePoly3,180.000000*%
%ADD28FreePoly4,180.000000*%
%ADD29FreePoly5,180.000000*%
%ADD30FreePoly6,180.000000*%
%ADD31FreePoly7,180.000000*%
%ADD32C,17.800000*%
%ADD33R,1.270000X5.080000*%
G04 APERTURE END LIST*
D10*
X98500000Y-53500000D02*
X98500000Y-56500000D01*
X97250000Y-57750000D01*
X94250000Y-57750000D01*
X93000000Y-56500000D01*
X93000000Y-53500000D01*
X94250000Y-52250000D01*
X97250000Y-52250000D01*
X98500000Y-53500000D01*
G36*
X98500000Y-53500000D02*
G01*
X98500000Y-56500000D01*
X97250000Y-57750000D01*
X94250000Y-57750000D01*
X93000000Y-56500000D01*
X93000000Y-53500000D01*
X94250000Y-52250000D01*
X97250000Y-52250000D01*
X98500000Y-53500000D01*
G37*
X83750000Y-53500000D02*
X83750000Y-56500000D01*
X82500000Y-57750000D01*
X79500000Y-57750000D01*
X78250000Y-56500000D01*
X78250000Y-53500000D01*
X79500000Y-52250000D01*
X82500000Y-52250000D01*
X83750000Y-53500000D01*
G36*
X83750000Y-53500000D02*
G01*
X83750000Y-56500000D01*
X82500000Y-57750000D01*
X79500000Y-57750000D01*
X78250000Y-56500000D01*
X78250000Y-53500000D01*
X79500000Y-52250000D01*
X82500000Y-52250000D01*
X83750000Y-53500000D01*
G37*
D11*
%TO.C,SW4*%
X107000000Y-68125000D03*
X113000000Y-68125000D03*
X107000000Y-71875000D03*
X113000000Y-71875000D03*
%TD*%
%TO.C,SW3*%
X107000000Y-60625000D03*
X113000000Y-60625000D03*
X107000000Y-64375000D03*
X113000000Y-64375000D03*
%TD*%
D12*
%TO.C,C1*%
X74020000Y-53250000D03*
X74980000Y-53250000D03*
%TD*%
%TO.C,C7*%
X90980000Y-69100000D03*
X90020000Y-69100000D03*
%TD*%
D13*
%TO.C,C6*%
X91900000Y-65680000D03*
X91900000Y-64720000D03*
%TD*%
%TO.C,C5*%
X85600000Y-65680000D03*
X85600000Y-64720000D03*
%TD*%
D14*
%TO.C,J1*%
X92700000Y-66900000D03*
%TD*%
D15*
%TO.C,REF\u002A\u002A*%
X89500000Y-30500000D03*
%TD*%
D16*
%TO.C,D1*%
X94375000Y-57000000D03*
D17*
X95750000Y-57650000D03*
D16*
X97125000Y-57000000D03*
%TD*%
D18*
%TO.C,R1*%
X94500000Y-58990000D03*
X94500000Y-60010000D03*
%TD*%
D19*
%TO.C,H3*%
X87000000Y-72500000D03*
%TD*%
D20*
%TO.C,H1*%
X90500000Y-72500000D03*
%TD*%
D19*
%TO.C,H2*%
X85000000Y-72500000D03*
%TD*%
D18*
%TO.C,R4*%
X81000000Y-58990000D03*
X81000000Y-60010000D03*
%TD*%
%TO.C,R2*%
X95750000Y-58990000D03*
X95750000Y-60010000D03*
%TD*%
D21*
%TO.C,D3*%
X75000000Y-50000000D03*
X75000000Y-47500000D03*
%TD*%
D20*
%TO.C,H4*%
X92500000Y-72500000D03*
%TD*%
D18*
%TO.C,R3*%
X79750000Y-58990000D03*
X79750000Y-60010000D03*
%TD*%
D16*
%TO.C,D2*%
X79625000Y-57000000D03*
D17*
X81000000Y-57650000D03*
D16*
X82375000Y-57000000D03*
%TD*%
D11*
%TO.C,SW1*%
X64500000Y-60625000D03*
X70500000Y-60625000D03*
X64500000Y-64375000D03*
X70500000Y-64375000D03*
%TD*%
D12*
%TO.C,C4*%
X75000000Y-52000000D03*
X74040000Y-52000000D03*
%TD*%
D11*
%TO.C,SW2*%
X64500000Y-68125000D03*
X70500000Y-68125000D03*
X64500000Y-71875000D03*
X70500000Y-71875000D03*
%TD*%
D22*
%TO.C,U1*%
X90747500Y-67437500D03*
D23*
X90687500Y-66937500D03*
X90687500Y-66437500D03*
X90687500Y-65937500D03*
X90687500Y-65437500D03*
X90687500Y-64937500D03*
D24*
X90747500Y-64437500D03*
D25*
X90250000Y-63940000D03*
D26*
X89750000Y-64000000D03*
X89250000Y-64000000D03*
X88750000Y-64000000D03*
X88250000Y-64000000D03*
X87750000Y-64000000D03*
D27*
X87250000Y-63940000D03*
D28*
X86752500Y-64437500D03*
D23*
X86812500Y-64937500D03*
X86812500Y-65437500D03*
X86812500Y-65937500D03*
X86812500Y-66437500D03*
X86812500Y-66937500D03*
D29*
X86752500Y-67437500D03*
D30*
X87250000Y-67935000D03*
D26*
X87750000Y-67875000D03*
X88250000Y-67875000D03*
X88750000Y-67875000D03*
X89250000Y-67875000D03*
X89750000Y-67875000D03*
D31*
X90250000Y-67935000D03*
%TD*%
D32*
%TO.C,BT1*%
X89500000Y-43500000D03*
D33*
X78515000Y-43500000D03*
X100485000Y-43500000D03*
%TD*%
M02*
