%TF.GenerationSoftware,KiCad,Pcbnew,7.0.10*%
%TF.CreationDate,2024-01-13T02:21:11+01:00*%
%TF.ProjectId,ferris,66657272-6973-42e6-9b69-6361645f7063,rev?*%
%TF.SameCoordinates,Original*%
%TF.FileFunction,Copper,L2,Bot*%
%TF.FilePolarity,Positive*%
%FSLAX46Y46*%
G04 Gerber Fmt 4.6, Leading zero omitted, Abs format (unit mm)*
G04 Created by KiCad (PCBNEW 7.0.10) date 2024-01-13 02:21:11*
%MOMM*%
%LPD*%
G01*
G04 APERTURE LIST*
%TA.AperFunction,EtchedComponent*%
%ADD10C,0.010000*%
%TD*%
G04 APERTURE END LIST*
%TO.C,Ref\u002A\u002A*%
D10*
X121720325Y-50539831D02*
X121568221Y-50770701D01*
X121382313Y-51047269D01*
X121159552Y-51374197D01*
X120896886Y-51756145D01*
X120591264Y-52197776D01*
X120239636Y-52703751D01*
X119968473Y-53093335D01*
X120095135Y-53158834D01*
X120098908Y-53160771D01*
X120205341Y-53205729D01*
X120286099Y-53224334D01*
X120344702Y-53240724D01*
X120467612Y-53299666D01*
X120635606Y-53394057D01*
X120835892Y-53516060D01*
X121055682Y-53657844D01*
X121282185Y-53811574D01*
X121502611Y-53969417D01*
X121707445Y-54129963D01*
X121995346Y-54379055D01*
X122298375Y-54662775D01*
X122599793Y-54964264D01*
X122882859Y-55266665D01*
X122927973Y-55318778D01*
X123130834Y-55553117D01*
X123326979Y-55806764D01*
X123674708Y-56354309D01*
X123981297Y-56961412D01*
X124226742Y-57591401D01*
X124400859Y-58221381D01*
X124408324Y-58257545D01*
X124448574Y-58537240D01*
X124473790Y-58874295D01*
X124484160Y-59246216D01*
X124479868Y-59630508D01*
X124461101Y-60004677D01*
X124428046Y-60346228D01*
X124380888Y-60632667D01*
X124216069Y-61268673D01*
X123943298Y-62040167D01*
X123591341Y-62812834D01*
X123500511Y-62988582D01*
X123388536Y-63194511D01*
X123269892Y-63399238D01*
X123139851Y-63609406D01*
X122993684Y-63831662D01*
X122826664Y-64072652D01*
X122634064Y-64339021D01*
X122411156Y-64637416D01*
X122153211Y-64974482D01*
X121855503Y-65356866D01*
X121513303Y-65791212D01*
X121121884Y-66284167D01*
X120589359Y-66948198D01*
X119913449Y-67777002D01*
X119254318Y-68569486D01*
X118614386Y-69323092D01*
X117996071Y-70035259D01*
X117401793Y-70703428D01*
X116833968Y-71325039D01*
X116295016Y-71897534D01*
X115787355Y-72418351D01*
X115313403Y-72884933D01*
X114875580Y-73294719D01*
X114476303Y-73645149D01*
X114117991Y-73933665D01*
X113803062Y-74157707D01*
X113533936Y-74314715D01*
X113511721Y-74325697D01*
X113334155Y-74399716D01*
X113203179Y-74419341D01*
X113101648Y-74383842D01*
X113012414Y-74292487D01*
X112999920Y-74275115D01*
X112965946Y-74214997D01*
X112944107Y-74140815D01*
X112932056Y-74034929D01*
X112927445Y-73879700D01*
X112927927Y-73657487D01*
X112944568Y-73289593D01*
X112993913Y-72831044D01*
X113076408Y-72306628D01*
X113192649Y-71712592D01*
X113343233Y-71045186D01*
X113427098Y-70700248D01*
X113640984Y-69870700D01*
X113886652Y-68977684D01*
X114161199Y-68030334D01*
X114461724Y-67037781D01*
X114785325Y-66009158D01*
X115129101Y-64953598D01*
X115490149Y-63880233D01*
X115865568Y-62798195D01*
X116252457Y-61716617D01*
X116647912Y-60644631D01*
X117079682Y-59492428D01*
X116963670Y-59381282D01*
X116847658Y-59270135D01*
X116028579Y-59588201D01*
X115592271Y-59755946D01*
X115065833Y-59953155D01*
X114541242Y-60143319D01*
X113997638Y-60333850D01*
X113414160Y-60532155D01*
X112769946Y-60745646D01*
X111685059Y-61101504D01*
X111634952Y-61364502D01*
X111516864Y-61900997D01*
X111360625Y-62481432D01*
X111176719Y-63070584D01*
X110974830Y-63637454D01*
X110764637Y-64151042D01*
X110623584Y-64457713D01*
X110173045Y-65308352D01*
X109660790Y-66102424D01*
X109087976Y-66838531D01*
X108455754Y-67515278D01*
X107765281Y-68131267D01*
X107017710Y-68685102D01*
X106916748Y-68751610D01*
X106622208Y-68933662D01*
X106293219Y-69123253D01*
X105950618Y-69309272D01*
X105615241Y-69480605D01*
X105307923Y-69626142D01*
X105049500Y-69734770D01*
X104795500Y-69831512D01*
X104795500Y-70619006D01*
X104794347Y-70887720D01*
X104789253Y-71133404D01*
X104778591Y-71332018D01*
X104760751Y-71503612D01*
X104734127Y-71668236D01*
X104697110Y-71845941D01*
X104569659Y-72332587D01*
X104313521Y-73039850D01*
X103978891Y-73719541D01*
X103564546Y-74374029D01*
X103069265Y-75005686D01*
X102651658Y-75453296D01*
X102041281Y-76003669D01*
X101373823Y-76501011D01*
X100657158Y-76941482D01*
X99899159Y-77321239D01*
X99107698Y-77636443D01*
X98290650Y-77883251D01*
X97455889Y-78057822D01*
X96611286Y-78156316D01*
X96253641Y-78173545D01*
X95513802Y-78164696D01*
X94772429Y-78099903D01*
X94064000Y-77981531D01*
X93956392Y-77958291D01*
X93801424Y-77923148D01*
X93691910Y-77896110D01*
X93646588Y-77881662D01*
X93662098Y-77856204D01*
X93726367Y-77777531D01*
X93831916Y-77655933D01*
X93969819Y-77501664D01*
X94131153Y-77324977D01*
X94806974Y-76563489D01*
X95719650Y-75439092D01*
X96576832Y-74267403D01*
X97364697Y-73066626D01*
X97401672Y-73006454D01*
X97505920Y-72831400D01*
X97587038Y-72686961D01*
X97637588Y-72586742D01*
X97650132Y-72544354D01*
X97648817Y-72543589D01*
X97593066Y-72541672D01*
X97467898Y-72548268D01*
X97286568Y-72562362D01*
X97062334Y-72582935D01*
X96808451Y-72608970D01*
X96274296Y-72664223D01*
X95255885Y-72758951D01*
X94192975Y-72845267D01*
X93111324Y-72921283D01*
X92036690Y-72985113D01*
X90994834Y-73034868D01*
X90818393Y-73042172D01*
X90498582Y-73055415D01*
X90191369Y-73068140D01*
X89914753Y-73079602D01*
X89686733Y-73089056D01*
X89525308Y-73095755D01*
X89498276Y-73096870D01*
X89317712Y-73102903D01*
X89202873Y-73101224D01*
X89136965Y-73089008D01*
X89103197Y-73063431D01*
X89084774Y-73021669D01*
X89080955Y-73004448D01*
X89071230Y-72905089D01*
X89063746Y-72745357D01*
X89059181Y-72543225D01*
X89058212Y-72316667D01*
X89058669Y-72263997D01*
X89109021Y-71551118D01*
X89241789Y-70854844D01*
X89457313Y-70174082D01*
X89755933Y-69507741D01*
X90137990Y-68854728D01*
X90425036Y-68443641D01*
X90945989Y-67811199D01*
X91527849Y-67234172D01*
X92172913Y-66710578D01*
X92883476Y-66238438D01*
X93661834Y-65815771D01*
X93836191Y-65732042D01*
X94627544Y-65397694D01*
X95415157Y-65142356D01*
X96211377Y-64963116D01*
X97028552Y-64857063D01*
X97879030Y-64821285D01*
X98037483Y-64821575D01*
X98448739Y-64829852D01*
X98810744Y-64851213D01*
X99149407Y-64888254D01*
X99490636Y-64943569D01*
X99860339Y-65019754D01*
X100039408Y-65061884D01*
X100743838Y-65272445D01*
X101410230Y-65544140D01*
X102027630Y-65872020D01*
X102585087Y-66251134D01*
X102730356Y-66353218D01*
X102853224Y-66420474D01*
X102932058Y-66440341D01*
X103059167Y-66413519D01*
X103254329Y-66358385D01*
X103488076Y-66283281D01*
X103739960Y-66195366D01*
X103989537Y-66101800D01*
X104216360Y-66009742D01*
X104399986Y-65926349D01*
X104760416Y-65734593D01*
X105345381Y-65354264D01*
X105870188Y-64916520D01*
X106338070Y-64418145D01*
X106752261Y-63855924D01*
X107115995Y-63226645D01*
X107212395Y-63034119D01*
X107316937Y-62815464D01*
X107405316Y-62620010D01*
X107471882Y-62460774D01*
X107510983Y-62350774D01*
X107516969Y-62303027D01*
X107508608Y-62302851D01*
X107436530Y-62315426D01*
X107303181Y-62343926D01*
X107123435Y-62385088D01*
X106912167Y-62435653D01*
X106019149Y-62648524D01*
X103593718Y-63175374D01*
X101180121Y-63623533D01*
X98768226Y-63994459D01*
X96347900Y-64289605D01*
X93909011Y-64510429D01*
X91441426Y-64658386D01*
X91285904Y-64664587D01*
X90920439Y-64674844D01*
X90491134Y-64682363D01*
X90009412Y-64687246D01*
X89486696Y-64689595D01*
X88934408Y-64689514D01*
X88363972Y-64687104D01*
X87786809Y-64682468D01*
X87214342Y-64675708D01*
X86657994Y-64666927D01*
X86129188Y-64656227D01*
X85639346Y-64643712D01*
X85199892Y-64629482D01*
X84822247Y-64613640D01*
X84517834Y-64596290D01*
X84314359Y-64582127D01*
X82616091Y-64444382D01*
X80983479Y-64275384D01*
X79404069Y-64073058D01*
X77865405Y-63835330D01*
X76355031Y-63560122D01*
X74860493Y-63245362D01*
X73369335Y-62888972D01*
X71869101Y-62488878D01*
X71728625Y-62449822D01*
X71476170Y-62381184D01*
X71258035Y-62323895D01*
X71085991Y-62280938D01*
X70971808Y-62255301D01*
X70927254Y-62249968D01*
X70928823Y-62288769D01*
X70961604Y-62393047D01*
X71022433Y-62548517D01*
X71105868Y-62742096D01*
X71206468Y-62960700D01*
X71318788Y-63191245D01*
X71388052Y-63325400D01*
X71761884Y-63940312D01*
X72199773Y-64501658D01*
X72697543Y-65005587D01*
X73251019Y-65448246D01*
X73856026Y-65825782D01*
X74508388Y-66134343D01*
X74743609Y-66229453D01*
X75112067Y-65989279D01*
X75657129Y-65674881D01*
X76301840Y-65390000D01*
X76989912Y-65167396D01*
X77712506Y-65008549D01*
X78460784Y-64914943D01*
X79225907Y-64888059D01*
X79999037Y-64929379D01*
X80771334Y-65040385D01*
X80792650Y-65044467D01*
X81602328Y-65236947D01*
X82383294Y-65494696D01*
X83131005Y-65813557D01*
X83840913Y-66189373D01*
X84508474Y-66617988D01*
X85129142Y-67095244D01*
X85698372Y-67616986D01*
X86211617Y-68179055D01*
X86664334Y-68777295D01*
X87051975Y-69407550D01*
X87369997Y-70065663D01*
X87613852Y-70747476D01*
X87778996Y-71448834D01*
X87806987Y-71648794D01*
X87830872Y-71909018D01*
X87847297Y-72192653D01*
X87855659Y-72478211D01*
X87855353Y-72744209D01*
X87845774Y-72969162D01*
X87826319Y-73131584D01*
X87794831Y-73290334D01*
X87383999Y-73290083D01*
X87350936Y-73290034D01*
X86840733Y-73283267D01*
X86261168Y-73265846D01*
X85625777Y-73238759D01*
X84948094Y-73202995D01*
X84241655Y-73159543D01*
X83519994Y-73109393D01*
X82796647Y-73053535D01*
X82085148Y-72992956D01*
X81399032Y-72928647D01*
X80751834Y-72861597D01*
X80157090Y-72792795D01*
X79628334Y-72723231D01*
X79522752Y-72708600D01*
X79367957Y-72688558D01*
X79259528Y-72676391D01*
X79216164Y-72674317D01*
X79215747Y-72675693D01*
X79239249Y-72722097D01*
X79304092Y-72825061D01*
X79402974Y-72974034D01*
X79528592Y-73158467D01*
X79673643Y-73367807D01*
X79830825Y-73591506D01*
X79992834Y-73819011D01*
X80152369Y-74039774D01*
X80302126Y-74243242D01*
X80853121Y-74964151D01*
X81503320Y-75763209D01*
X82165897Y-76520112D01*
X82859179Y-77256460D01*
X83403368Y-77814753D01*
X83240934Y-77858206D01*
X83067622Y-77899351D01*
X82687560Y-77964562D01*
X82255541Y-78012863D01*
X81791975Y-78043514D01*
X81317276Y-78055773D01*
X80851855Y-78048899D01*
X80416126Y-78022150D01*
X80030500Y-77974786D01*
X79304928Y-77829338D01*
X78484162Y-77597566D01*
X77698978Y-77302982D01*
X76953538Y-76949163D01*
X76252001Y-76539685D01*
X75598529Y-76078126D01*
X74997283Y-75568062D01*
X74452422Y-75013071D01*
X73968108Y-74416730D01*
X73548501Y-73782616D01*
X73197762Y-73114305D01*
X72920052Y-72415376D01*
X72719531Y-71689404D01*
X72691784Y-71533631D01*
X72659205Y-71253296D01*
X72636194Y-70929085D01*
X72623513Y-70584865D01*
X72621925Y-70244505D01*
X72632190Y-69931872D01*
X72655073Y-69670834D01*
X72687979Y-69416834D01*
X72257844Y-69185840D01*
X72068258Y-69081429D01*
X71318233Y-68612193D01*
X70616305Y-68077591D01*
X69952969Y-67470550D01*
X69938018Y-67455609D01*
X69336092Y-66803441D01*
X68803065Y-66118385D01*
X68328866Y-65386298D01*
X67903420Y-64593039D01*
X67601872Y-63933928D01*
X67283009Y-63105659D01*
X67025479Y-62258172D01*
X66820311Y-61364725D01*
X66702032Y-60763284D01*
X66360099Y-60627329D01*
X66207097Y-60566043D01*
X65817875Y-60407029D01*
X65392115Y-60229493D01*
X64949042Y-60041680D01*
X64507881Y-59851834D01*
X64087854Y-59668203D01*
X63708186Y-59499031D01*
X63388101Y-59352564D01*
X63133528Y-59236930D01*
X62880326Y-59127526D01*
X62649394Y-59033068D01*
X62458697Y-58960900D01*
X62326199Y-58918369D01*
X62031697Y-58841985D01*
X61777217Y-59014799D01*
X61522737Y-59187612D01*
X61769659Y-60322890D01*
X62000414Y-61398489D01*
X62244864Y-62573002D01*
X62474074Y-63712612D01*
X62687534Y-64813980D01*
X62884733Y-65873767D01*
X63065160Y-66888634D01*
X63228305Y-67855240D01*
X63373659Y-68770247D01*
X63500709Y-69630316D01*
X63608946Y-70432106D01*
X63697860Y-71172279D01*
X63766939Y-71847496D01*
X63815673Y-72454416D01*
X63843553Y-72989701D01*
X63850067Y-73450012D01*
X63834705Y-73832008D01*
X63829783Y-73892029D01*
X63797689Y-74160906D01*
X63752310Y-74356418D01*
X63689577Y-74487711D01*
X63605425Y-74563930D01*
X63495787Y-74594219D01*
X63431022Y-74595156D01*
X63339347Y-74573916D01*
X63231855Y-74516420D01*
X63085147Y-74412301D01*
X62871731Y-74234077D01*
X62592038Y-73959765D01*
X62278883Y-73615042D01*
X61934328Y-73202907D01*
X61560438Y-72726357D01*
X61159274Y-72188392D01*
X60732901Y-71592009D01*
X60283380Y-70940206D01*
X59812775Y-70235981D01*
X59323149Y-69482332D01*
X58816565Y-68682258D01*
X58295086Y-67838756D01*
X57760775Y-66954825D01*
X57215695Y-66033462D01*
X56661909Y-65077667D01*
X56476206Y-64752736D01*
X56155012Y-64183513D01*
X55874137Y-63673667D01*
X55630211Y-63215294D01*
X55419867Y-62800488D01*
X55239735Y-62421341D01*
X55086448Y-62069949D01*
X54956636Y-61738404D01*
X54846931Y-61418801D01*
X54753964Y-61103234D01*
X54674367Y-60783795D01*
X54604772Y-60452580D01*
X54541809Y-60101682D01*
X54532143Y-60040074D01*
X54496355Y-59715148D01*
X54475443Y-59344719D01*
X54469420Y-58954554D01*
X54478296Y-58570423D01*
X54502085Y-58218093D01*
X54540797Y-57923334D01*
X54618671Y-57565501D01*
X54795428Y-56991239D01*
X55029434Y-56423017D01*
X55309938Y-55885788D01*
X55626188Y-55404500D01*
X55686536Y-55327691D01*
X76858065Y-55327691D01*
X76872848Y-55945979D01*
X76958144Y-56521529D01*
X77113960Y-57053322D01*
X77340305Y-57540338D01*
X77637186Y-57981555D01*
X77766426Y-58133801D01*
X77919579Y-58284604D01*
X78102490Y-58432398D01*
X78338227Y-58597451D01*
X78662174Y-58803215D01*
X79249817Y-59125504D01*
X79845032Y-59390215D01*
X80433056Y-59591109D01*
X80999129Y-59721948D01*
X81539499Y-59777577D01*
X82053545Y-59754996D01*
X82536926Y-59653697D01*
X82989152Y-59473827D01*
X83409729Y-59215536D01*
X83798167Y-58878971D01*
X84078180Y-58585211D01*
X84452852Y-58143251D01*
X84759420Y-57709395D01*
X85005135Y-57271716D01*
X85197244Y-56818287D01*
X85342996Y-56337181D01*
X85441909Y-55805120D01*
X85479671Y-55186847D01*
X85473444Y-55079433D01*
X91416014Y-55079433D01*
X91417962Y-55186847D01*
X91423078Y-55469035D01*
X91442407Y-55838766D01*
X91473800Y-56167296D01*
X91517057Y-56433297D01*
X91678904Y-57038498D01*
X91898430Y-57598663D01*
X92173796Y-58097457D01*
X92507321Y-58537925D01*
X92901320Y-58923113D01*
X93358111Y-59256067D01*
X93880011Y-59539834D01*
X94067243Y-59619601D01*
X94410895Y-59738992D01*
X94793807Y-59846040D01*
X95188334Y-59933313D01*
X95566834Y-59993377D01*
X95596138Y-59996954D01*
X95786656Y-60019728D01*
X95922879Y-60031104D01*
X96031357Y-60028801D01*
X96138641Y-60010537D01*
X96271283Y-59974032D01*
X96455834Y-59917004D01*
X96633151Y-59859817D01*
X97303392Y-59600266D01*
X97913187Y-59291945D01*
X98460015Y-58937147D01*
X98941356Y-58538165D01*
X99354690Y-58097290D01*
X99697496Y-57616815D01*
X99967255Y-57099033D01*
X100161447Y-56546235D01*
X100210077Y-56315956D01*
X100249711Y-56009080D01*
X100274485Y-55668081D01*
X100283196Y-55318778D01*
X100274639Y-54986992D01*
X100247611Y-54698541D01*
X100239149Y-54641541D01*
X100159076Y-54223536D01*
X100045333Y-53770479D01*
X99906821Y-53314896D01*
X99752444Y-52889316D01*
X99696523Y-52751152D01*
X99612983Y-52552519D01*
X99538292Y-52383628D01*
X99477114Y-52254192D01*
X99434115Y-52173927D01*
X99413959Y-52152547D01*
X99421313Y-52199768D01*
X99437856Y-52296290D01*
X99449523Y-52482776D01*
X99449908Y-52713190D01*
X99440020Y-52964730D01*
X99420862Y-53214590D01*
X99393441Y-53439967D01*
X99358763Y-53618054D01*
X99304502Y-53800328D01*
X99160308Y-54150747D01*
X98975763Y-54475531D01*
X98761234Y-54759923D01*
X98527086Y-54989167D01*
X98283684Y-55148508D01*
X98106976Y-55224215D01*
X97764512Y-55309373D01*
X97430003Y-55310583D01*
X97105509Y-55228230D01*
X96793085Y-55062698D01*
X96494790Y-54814371D01*
X96275940Y-54558628D01*
X96053494Y-54186686D01*
X95890936Y-53764545D01*
X95791228Y-53300289D01*
X95757334Y-52802003D01*
X95766870Y-52452744D01*
X95800581Y-52137042D01*
X95862782Y-51852648D01*
X95957749Y-51573334D01*
X96084290Y-51296461D01*
X96299801Y-50952925D01*
X96553027Y-50667948D01*
X96836776Y-50447938D01*
X96856256Y-50438509D01*
X98402047Y-50438509D01*
X98402419Y-50457576D01*
X98454258Y-50491112D01*
X98462289Y-50494125D01*
X98504708Y-50503008D01*
X98477956Y-50467414D01*
X98446830Y-50443258D01*
X98402047Y-50438509D01*
X96856256Y-50438509D01*
X97143855Y-50299303D01*
X97467073Y-50228452D01*
X97544319Y-50220540D01*
X97626430Y-50206547D01*
X97649918Y-50189215D01*
X97609831Y-50166273D01*
X97501217Y-50135450D01*
X97319126Y-50094475D01*
X97058604Y-50041075D01*
X96907746Y-50014157D01*
X96544317Y-49969763D01*
X96151161Y-49944821D01*
X95750700Y-49939343D01*
X95365358Y-49953343D01*
X95017557Y-49986831D01*
X94729721Y-50039820D01*
X94256974Y-50184954D01*
X93741219Y-50416971D01*
X93275267Y-50715061D01*
X92854432Y-51081831D01*
X92756331Y-51184261D01*
X92404289Y-51621786D01*
X92095754Y-52120250D01*
X91836884Y-52667107D01*
X91633837Y-53249815D01*
X91492771Y-53855829D01*
X91470423Y-54004698D01*
X91439485Y-54325935D01*
X91421416Y-54691290D01*
X91416014Y-55079433D01*
X85473444Y-55079433D01*
X85442598Y-54547343D01*
X85331934Y-53893732D01*
X85148924Y-53233139D01*
X84894816Y-52572687D01*
X84570852Y-51919501D01*
X84567277Y-51913051D01*
X84426132Y-51668101D01*
X84300923Y-51477613D01*
X84173689Y-51319160D01*
X84026468Y-51170317D01*
X83841297Y-51008658D01*
X83630426Y-50832500D01*
X83727874Y-50980667D01*
X83733296Y-50988969D01*
X83867661Y-51227923D01*
X83996076Y-51514174D01*
X84102657Y-51812469D01*
X84118056Y-51866155D01*
X84147271Y-52006509D01*
X84166093Y-52175528D01*
X84176174Y-52391823D01*
X84179167Y-52674000D01*
X84179055Y-52749094D01*
X84175927Y-52991371D01*
X84166775Y-53176411D01*
X84149289Y-53325937D01*
X84121158Y-53461671D01*
X84080070Y-53605334D01*
X83984886Y-53870728D01*
X83798569Y-54247496D01*
X83574304Y-54564621D01*
X83317610Y-54817956D01*
X83034009Y-55003352D01*
X82729019Y-55116663D01*
X82408162Y-55153740D01*
X82076956Y-55110435D01*
X81877708Y-55044284D01*
X81568194Y-54872879D01*
X81290911Y-54630437D01*
X81051523Y-54323453D01*
X80855693Y-53958420D01*
X80709084Y-53541834D01*
X80675200Y-53395468D01*
X80628926Y-53063776D01*
X80610783Y-52703772D01*
X80621827Y-52350013D01*
X80663113Y-52037060D01*
X80757035Y-51679704D01*
X80916127Y-51291025D01*
X81120348Y-50951388D01*
X81363635Y-50667657D01*
X81639929Y-50446695D01*
X81943168Y-50295365D01*
X82267291Y-50220530D01*
X82528167Y-50193624D01*
X82104834Y-50049043D01*
X81989796Y-50010171D01*
X81850439Y-49966709D01*
X81728280Y-49937124D01*
X81602946Y-49918728D01*
X81454064Y-49908833D01*
X81261262Y-49904749D01*
X81004167Y-49903789D01*
X80907680Y-49903774D01*
X80671357Y-49905388D01*
X80493935Y-49911220D01*
X80356160Y-49923496D01*
X80238776Y-49944441D01*
X80122530Y-49976283D01*
X79988167Y-50021245D01*
X79608305Y-50172327D01*
X79125134Y-50428334D01*
X78669436Y-50750316D01*
X78226610Y-51147610D01*
X78112903Y-51262338D01*
X78007832Y-51378104D01*
X77925876Y-51488278D01*
X77853534Y-51613965D01*
X77777305Y-51776271D01*
X77683686Y-51996302D01*
X77503900Y-52447575D01*
X77236712Y-53226609D01*
X77040004Y-53966986D01*
X76913786Y-54667687D01*
X76858065Y-55327691D01*
X55686536Y-55327691D01*
X55818890Y-55159234D01*
X56260167Y-54675459D01*
X56762796Y-54211556D01*
X57311236Y-53780244D01*
X57889942Y-53394242D01*
X58483373Y-53066270D01*
X58536076Y-53039770D01*
X58671021Y-52967491D01*
X58765040Y-52910428D01*
X58800334Y-52879092D01*
X58799727Y-52877109D01*
X58769212Y-52826343D01*
X58696409Y-52715088D01*
X58586575Y-52551106D01*
X58444965Y-52342157D01*
X58276837Y-52096003D01*
X58087445Y-51820405D01*
X57882046Y-51523125D01*
X57635743Y-51165035D01*
X57389230Y-50799817D01*
X57189620Y-50495530D01*
X57037967Y-50253815D01*
X56935322Y-50076313D01*
X56882739Y-49964667D01*
X56857001Y-49879458D01*
X56823088Y-49598731D01*
X56860400Y-49324589D01*
X56961904Y-49071036D01*
X57120564Y-48852076D01*
X57329349Y-48681713D01*
X57581224Y-48573952D01*
X57592115Y-48571257D01*
X57690434Y-48550857D01*
X57859822Y-48518804D01*
X58090031Y-48476924D01*
X58370817Y-48427039D01*
X58691932Y-48370975D01*
X59043131Y-48310556D01*
X59414167Y-48247606D01*
X59522666Y-48229273D01*
X59879247Y-48168250D01*
X60206755Y-48111044D01*
X60496113Y-48059318D01*
X60738245Y-48014735D01*
X60924072Y-47978958D01*
X61044518Y-47953650D01*
X61090505Y-47940474D01*
X61103761Y-47920522D01*
X61152177Y-47837356D01*
X61224425Y-47707682D01*
X61310471Y-47549341D01*
X61505098Y-47187183D01*
X60794201Y-45559675D01*
X60724806Y-45400609D01*
X60573904Y-45053357D01*
X60433687Y-44728869D01*
X60308048Y-44436272D01*
X60200884Y-44184691D01*
X60116088Y-43983250D01*
X60057555Y-43841076D01*
X60029181Y-43767292D01*
X59986248Y-43536886D01*
X60002403Y-43263779D01*
X60079850Y-42996812D01*
X60211714Y-42758692D01*
X60391116Y-42572127D01*
X60402295Y-42563652D01*
X60481013Y-42508460D01*
X60561642Y-42464135D01*
X60653366Y-42429936D01*
X60765368Y-42405123D01*
X60906832Y-42388954D01*
X61086941Y-42380688D01*
X61314879Y-42379584D01*
X61599830Y-42384901D01*
X61950976Y-42395899D01*
X62377500Y-42411834D01*
X62589079Y-42419905D01*
X62943974Y-42432788D01*
X63280378Y-42444222D01*
X63585070Y-42453800D01*
X63844830Y-42461114D01*
X64046435Y-42465757D01*
X64176667Y-42467321D01*
X64536500Y-42466874D01*
X64790500Y-42134166D01*
X64858872Y-42042048D01*
X64952453Y-41905720D01*
X65014915Y-41800933D01*
X65035378Y-41744979D01*
X65032479Y-41730590D01*
X65013384Y-41643270D01*
X64978412Y-41486487D01*
X64929583Y-41269193D01*
X64868915Y-41000344D01*
X64798427Y-40688892D01*
X64720139Y-40343793D01*
X64636068Y-39974000D01*
X64582126Y-39736183D01*
X64484491Y-39299303D01*
X64405428Y-38933009D01*
X64343866Y-38629437D01*
X64298735Y-38380727D01*
X64268967Y-38179015D01*
X64253491Y-38016439D01*
X64251238Y-37885137D01*
X64261138Y-37777247D01*
X64282121Y-37684907D01*
X64313119Y-37600255D01*
X64339739Y-37542641D01*
X64501040Y-37304912D01*
X64714118Y-37123937D01*
X64965707Y-37008738D01*
X65242539Y-36968334D01*
X65251881Y-36968488D01*
X65377587Y-36982603D01*
X65583334Y-37019424D01*
X65867836Y-37078674D01*
X66229806Y-37160073D01*
X66667957Y-37263343D01*
X67181003Y-37388204D01*
X68884660Y-37808075D01*
X69218440Y-37525787D01*
X69552219Y-37243500D01*
X69532389Y-36989500D01*
X69531905Y-36983020D01*
X69525933Y-36875508D01*
X69517992Y-36695586D01*
X69508489Y-36454342D01*
X69497830Y-36162864D01*
X69486422Y-35832240D01*
X69474673Y-35473557D01*
X69462989Y-35097903D01*
X69456441Y-34880405D01*
X69444656Y-34465982D01*
X69436971Y-34123600D01*
X69434334Y-33844647D01*
X69437691Y-33620509D01*
X69447987Y-33442572D01*
X69466169Y-33302223D01*
X69493183Y-33190847D01*
X69529974Y-33099832D01*
X69577489Y-33020564D01*
X69636675Y-32944429D01*
X69708476Y-32862813D01*
X69794265Y-32774851D01*
X70007452Y-32620466D01*
X70243473Y-32541370D01*
X70518493Y-32530939D01*
X70562520Y-32535370D01*
X70637189Y-32548877D01*
X70726193Y-32573305D01*
X70837259Y-32611913D01*
X70978118Y-32667955D01*
X71156497Y-32744690D01*
X71380127Y-32845374D01*
X71656736Y-32973263D01*
X71994052Y-33131615D01*
X72399805Y-33323686D01*
X74032371Y-34098441D01*
X74395613Y-33900438D01*
X74492977Y-33846673D01*
X74633742Y-33766117D01*
X74734003Y-33705042D01*
X74776658Y-33673629D01*
X74781299Y-33654850D01*
X74798455Y-33561816D01*
X74826200Y-33399105D01*
X74863113Y-33175444D01*
X74907776Y-32899560D01*
X74958768Y-32580178D01*
X75014668Y-32226025D01*
X75074058Y-31845828D01*
X75106735Y-31637187D01*
X75167119Y-31259832D01*
X75225032Y-30908033D01*
X75278782Y-30591485D01*
X75326679Y-30319881D01*
X75367032Y-30102915D01*
X75398151Y-29950283D01*
X75418344Y-29871678D01*
X75449705Y-29800162D01*
X75582537Y-29602868D01*
X75762484Y-29427467D01*
X75963079Y-29301654D01*
X76054268Y-29267084D01*
X76305021Y-29223848D01*
X76563522Y-29240594D01*
X76795409Y-29316700D01*
X76808213Y-29323753D01*
X76898691Y-29381938D01*
X77045970Y-29483653D01*
X77241558Y-29622765D01*
X77476963Y-29793139D01*
X77743694Y-29988641D01*
X78033259Y-30203136D01*
X78337167Y-30430490D01*
X78434764Y-30503841D01*
X78726911Y-30723156D01*
X78996611Y-30925245D01*
X79236332Y-31104490D01*
X79438544Y-31255273D01*
X79595716Y-31371975D01*
X79700318Y-31448978D01*
X79744819Y-31480664D01*
X79806517Y-31482694D01*
X79925278Y-31461829D01*
X80078520Y-31424474D01*
X80243744Y-31377084D01*
X80398451Y-31326113D01*
X80520141Y-31278017D01*
X80586316Y-31239249D01*
X80598509Y-31216567D01*
X80638781Y-31120863D01*
X80702118Y-30959114D01*
X80785369Y-30739734D01*
X80885387Y-30471136D01*
X80999021Y-30161733D01*
X81123122Y-29819939D01*
X81254540Y-29454167D01*
X81314519Y-29286801D01*
X81490919Y-28800569D01*
X81641802Y-28394716D01*
X81767259Y-28069004D01*
X81867385Y-27823195D01*
X81942272Y-27657051D01*
X81992014Y-27570334D01*
X82071151Y-27483116D01*
X82290667Y-27324915D01*
X82549936Y-27227066D01*
X82830336Y-27195143D01*
X83113247Y-27234720D01*
X83118564Y-27236215D01*
X83179217Y-27256724D01*
X83241358Y-27286716D01*
X83310436Y-27331594D01*
X83391895Y-27396766D01*
X83491185Y-27487637D01*
X83613752Y-27609611D01*
X83765042Y-27768096D01*
X83950504Y-27968495D01*
X84175584Y-28216215D01*
X84445730Y-28516661D01*
X84766388Y-28875239D01*
X85912762Y-30159137D01*
X86315964Y-30130621D01*
X86535815Y-30109328D01*
X86692431Y-30079498D01*
X86766195Y-30042682D01*
X86776279Y-30027786D01*
X86826680Y-29946913D01*
X86913086Y-29804963D01*
X87030735Y-29609870D01*
X87174862Y-29369566D01*
X87340703Y-29091986D01*
X87523496Y-28785064D01*
X87718475Y-28456732D01*
X87806217Y-28309161D01*
X88001073Y-27984205D01*
X88184742Y-27681582D01*
X88351958Y-27409747D01*
X88497452Y-27177155D01*
X88615960Y-26992260D01*
X88702214Y-26863515D01*
X88750947Y-26799376D01*
X88962892Y-26637355D01*
X89211004Y-26540104D01*
X89475949Y-26509292D01*
X89740180Y-26544745D01*
X89986152Y-26646288D01*
X90196317Y-26813747D01*
X90212521Y-26833560D01*
X90278907Y-26928750D01*
X90380405Y-27084902D01*
X90511710Y-27293457D01*
X90667519Y-27545854D01*
X90842529Y-27833534D01*
X91031436Y-28147936D01*
X91228937Y-28480500D01*
X91323503Y-28640501D01*
X91512225Y-28958793D01*
X91686530Y-29251436D01*
X91841670Y-29510539D01*
X91972897Y-29728213D01*
X92075463Y-29896567D01*
X92144620Y-30007711D01*
X92175620Y-30053754D01*
X92198960Y-30066511D01*
X92296145Y-30091181D01*
X92445156Y-30113894D01*
X92624667Y-30130981D01*
X93026834Y-30158955D01*
X94229247Y-28811727D01*
X94364098Y-28660941D01*
X94617758Y-28378983D01*
X94854844Y-28117580D01*
X95068765Y-27883871D01*
X95252932Y-27684999D01*
X95400753Y-27528102D01*
X95505638Y-27420323D01*
X95560997Y-27368801D01*
X95671580Y-27299405D01*
X95916312Y-27212384D01*
X96176593Y-27192319D01*
X96435288Y-27235304D01*
X96675261Y-27337438D01*
X96879376Y-27494817D01*
X97030499Y-27703537D01*
X97040587Y-27725265D01*
X97083964Y-27831126D01*
X97150691Y-28003506D01*
X97237244Y-28232943D01*
X97340102Y-28509974D01*
X97455740Y-28825136D01*
X97580635Y-29168966D01*
X97711265Y-29532001D01*
X97772111Y-29701602D01*
X97897195Y-30048313D01*
X98012997Y-30366737D01*
X98116338Y-30648290D01*
X98204042Y-30884392D01*
X98272931Y-31066460D01*
X98319826Y-31185912D01*
X98341551Y-31234167D01*
X98360992Y-31248095D01*
X98449611Y-31289219D01*
X98588810Y-31342539D01*
X98758524Y-31400069D01*
X99138927Y-31521639D01*
X100565724Y-30451355D01*
X100708198Y-30344734D01*
X101013371Y-30118070D01*
X101299784Y-29907599D01*
X101559318Y-29719151D01*
X101783858Y-29558552D01*
X101965287Y-29431631D01*
X102095488Y-29344215D01*
X102166344Y-29302132D01*
X102272525Y-29264280D01*
X102499421Y-29227418D01*
X102734052Y-29233577D01*
X102936668Y-29283707D01*
X103049762Y-29339022D01*
X103271966Y-29502754D01*
X103443118Y-29709251D01*
X103546549Y-29940563D01*
X103553274Y-29972330D01*
X103573344Y-30083444D01*
X103603483Y-30259809D01*
X103641993Y-30490795D01*
X103687178Y-30765773D01*
X103737341Y-31074114D01*
X103790784Y-31405191D01*
X103845812Y-31748373D01*
X103900726Y-32093033D01*
X103953831Y-32428541D01*
X104003430Y-32744269D01*
X104047825Y-33029588D01*
X104085319Y-33273869D01*
X104114216Y-33466484D01*
X104132819Y-33596803D01*
X104139431Y-33654198D01*
X104159059Y-33674837D01*
X104240049Y-33729041D01*
X104369277Y-33804739D01*
X104531014Y-33892363D01*
X104922500Y-34097226D01*
X106531167Y-33327214D01*
X106833119Y-33182918D01*
X107183255Y-33016623D01*
X107471048Y-32881699D01*
X107704409Y-32774799D01*
X107891243Y-32692576D01*
X108039461Y-32631683D01*
X108156969Y-32588774D01*
X108251677Y-32560502D01*
X108331491Y-32543519D01*
X108404321Y-32534480D01*
X108504391Y-32529255D01*
X108772214Y-32558453D01*
X109002805Y-32658708D01*
X109209399Y-32834959D01*
X109227878Y-32855034D01*
X109303439Y-32939766D01*
X109365084Y-33019453D01*
X109413934Y-33103060D01*
X109451112Y-33199556D01*
X109477736Y-33317907D01*
X109494928Y-33467080D01*
X109503808Y-33656041D01*
X109505497Y-33893758D01*
X109501116Y-34189198D01*
X109491785Y-34551327D01*
X109478626Y-34989113D01*
X109467788Y-35333802D01*
X109455864Y-35696021D01*
X109444197Y-36034261D01*
X109433228Y-36336393D01*
X109423398Y-36590287D01*
X109415149Y-36783810D01*
X109408922Y-36904834D01*
X109387658Y-37243500D01*
X109719437Y-37524733D01*
X110051217Y-37805965D01*
X111756469Y-37387149D01*
X111952809Y-37339046D01*
X112388512Y-37233584D01*
X112753309Y-37147887D01*
X113055043Y-37080729D01*
X113301560Y-37030880D01*
X113500702Y-36997113D01*
X113660316Y-36978201D01*
X113788243Y-36972915D01*
X113892330Y-36980028D01*
X113980419Y-36998311D01*
X114060356Y-37026538D01*
X114273582Y-37151451D01*
X114470603Y-37352131D01*
X114615065Y-37604134D01*
X114696662Y-37893418D01*
X114696711Y-37893742D01*
X114700427Y-37947907D01*
X114697036Y-38023795D01*
X114685413Y-38126920D01*
X114664436Y-38262798D01*
X114632980Y-38436947D01*
X114589922Y-38654882D01*
X114534139Y-38922119D01*
X114464507Y-39244174D01*
X114379902Y-39626563D01*
X114279202Y-40074803D01*
X114161282Y-40594409D01*
X114025018Y-41190897D01*
X113886927Y-41793960D01*
X114146047Y-42131204D01*
X114405167Y-42468447D01*
X114786167Y-42467496D01*
X114840789Y-42467011D01*
X115012886Y-42463650D01*
X115249334Y-42457470D01*
X115536348Y-42448892D01*
X115860145Y-42438340D01*
X116206939Y-42426235D01*
X116562948Y-42413002D01*
X116971502Y-42397958D01*
X117307743Y-42387387D01*
X117578656Y-42381665D01*
X117793883Y-42381068D01*
X117963067Y-42385869D01*
X118095851Y-42396344D01*
X118201877Y-42412768D01*
X118290788Y-42435415D01*
X118372227Y-42464560D01*
X118507326Y-42544135D01*
X118665081Y-42691824D01*
X118800897Y-42873584D01*
X118892193Y-43063407D01*
X118918006Y-43144614D01*
X118942953Y-43242245D01*
X118956437Y-43339266D01*
X118956162Y-43443473D01*
X118939830Y-43562662D01*
X118905148Y-43704630D01*
X118849818Y-43877173D01*
X118771545Y-44088088D01*
X118668033Y-44345171D01*
X118536987Y-44656218D01*
X118376110Y-45029025D01*
X118183107Y-45471390D01*
X117435812Y-47179947D01*
X117629294Y-47566890D01*
X117687859Y-47683754D01*
X117758813Y-47824516D01*
X117808421Y-47921891D01*
X117828472Y-47959683D01*
X117833971Y-47960986D01*
X117902657Y-47973542D01*
X118042874Y-47997999D01*
X118245748Y-48032844D01*
X118502405Y-48076563D01*
X118803971Y-48127643D01*
X119141572Y-48184570D01*
X119506334Y-48245832D01*
X119605628Y-48262507D01*
X119974766Y-48325035D01*
X120321364Y-48384560D01*
X120635254Y-48439282D01*
X120906273Y-48487400D01*
X121124255Y-48527115D01*
X121279033Y-48556627D01*
X121360444Y-48574135D01*
X121595105Y-48671757D01*
X121807663Y-48838870D01*
X121971066Y-49056801D01*
X122077603Y-49311763D01*
X122119564Y-49589963D01*
X122089240Y-49877614D01*
X122080584Y-49907787D01*
X122051731Y-49980094D01*
X122004330Y-50074790D01*
X121935329Y-50196537D01*
X121841678Y-50349997D01*
X121743864Y-50503008D01*
X121720325Y-50539831D01*
%TA.AperFunction,EtchedComponent*%
G36*
X121720325Y-50539831D02*
G01*
X121568221Y-50770701D01*
X121382313Y-51047269D01*
X121159552Y-51374197D01*
X120896886Y-51756145D01*
X120591264Y-52197776D01*
X120239636Y-52703751D01*
X119968473Y-53093335D01*
X120095135Y-53158834D01*
X120098908Y-53160771D01*
X120205341Y-53205729D01*
X120286099Y-53224334D01*
X120344702Y-53240724D01*
X120467612Y-53299666D01*
X120635606Y-53394057D01*
X120835892Y-53516060D01*
X121055682Y-53657844D01*
X121282185Y-53811574D01*
X121502611Y-53969417D01*
X121707445Y-54129963D01*
X121995346Y-54379055D01*
X122298375Y-54662775D01*
X122599793Y-54964264D01*
X122882859Y-55266665D01*
X122927973Y-55318778D01*
X123130834Y-55553117D01*
X123326979Y-55806764D01*
X123674708Y-56354309D01*
X123981297Y-56961412D01*
X124226742Y-57591401D01*
X124400859Y-58221381D01*
X124408324Y-58257545D01*
X124448574Y-58537240D01*
X124473790Y-58874295D01*
X124484160Y-59246216D01*
X124479868Y-59630508D01*
X124461101Y-60004677D01*
X124428046Y-60346228D01*
X124380888Y-60632667D01*
X124216069Y-61268673D01*
X123943298Y-62040167D01*
X123591341Y-62812834D01*
X123500511Y-62988582D01*
X123388536Y-63194511D01*
X123269892Y-63399238D01*
X123139851Y-63609406D01*
X122993684Y-63831662D01*
X122826664Y-64072652D01*
X122634064Y-64339021D01*
X122411156Y-64637416D01*
X122153211Y-64974482D01*
X121855503Y-65356866D01*
X121513303Y-65791212D01*
X121121884Y-66284167D01*
X120589359Y-66948198D01*
X119913449Y-67777002D01*
X119254318Y-68569486D01*
X118614386Y-69323092D01*
X117996071Y-70035259D01*
X117401793Y-70703428D01*
X116833968Y-71325039D01*
X116295016Y-71897534D01*
X115787355Y-72418351D01*
X115313403Y-72884933D01*
X114875580Y-73294719D01*
X114476303Y-73645149D01*
X114117991Y-73933665D01*
X113803062Y-74157707D01*
X113533936Y-74314715D01*
X113511721Y-74325697D01*
X113334155Y-74399716D01*
X113203179Y-74419341D01*
X113101648Y-74383842D01*
X113012414Y-74292487D01*
X112999920Y-74275115D01*
X112965946Y-74214997D01*
X112944107Y-74140815D01*
X112932056Y-74034929D01*
X112927445Y-73879700D01*
X112927927Y-73657487D01*
X112944568Y-73289593D01*
X112993913Y-72831044D01*
X113076408Y-72306628D01*
X113192649Y-71712592D01*
X113343233Y-71045186D01*
X113427098Y-70700248D01*
X113640984Y-69870700D01*
X113886652Y-68977684D01*
X114161199Y-68030334D01*
X114461724Y-67037781D01*
X114785325Y-66009158D01*
X115129101Y-64953598D01*
X115490149Y-63880233D01*
X115865568Y-62798195D01*
X116252457Y-61716617D01*
X116647912Y-60644631D01*
X117079682Y-59492428D01*
X116963670Y-59381282D01*
X116847658Y-59270135D01*
X116028579Y-59588201D01*
X115592271Y-59755946D01*
X115065833Y-59953155D01*
X114541242Y-60143319D01*
X113997638Y-60333850D01*
X113414160Y-60532155D01*
X112769946Y-60745646D01*
X111685059Y-61101504D01*
X111634952Y-61364502D01*
X111516864Y-61900997D01*
X111360625Y-62481432D01*
X111176719Y-63070584D01*
X110974830Y-63637454D01*
X110764637Y-64151042D01*
X110623584Y-64457713D01*
X110173045Y-65308352D01*
X109660790Y-66102424D01*
X109087976Y-66838531D01*
X108455754Y-67515278D01*
X107765281Y-68131267D01*
X107017710Y-68685102D01*
X106916748Y-68751610D01*
X106622208Y-68933662D01*
X106293219Y-69123253D01*
X105950618Y-69309272D01*
X105615241Y-69480605D01*
X105307923Y-69626142D01*
X105049500Y-69734770D01*
X104795500Y-69831512D01*
X104795500Y-70619006D01*
X104794347Y-70887720D01*
X104789253Y-71133404D01*
X104778591Y-71332018D01*
X104760751Y-71503612D01*
X104734127Y-71668236D01*
X104697110Y-71845941D01*
X104569659Y-72332587D01*
X104313521Y-73039850D01*
X103978891Y-73719541D01*
X103564546Y-74374029D01*
X103069265Y-75005686D01*
X102651658Y-75453296D01*
X102041281Y-76003669D01*
X101373823Y-76501011D01*
X100657158Y-76941482D01*
X99899159Y-77321239D01*
X99107698Y-77636443D01*
X98290650Y-77883251D01*
X97455889Y-78057822D01*
X96611286Y-78156316D01*
X96253641Y-78173545D01*
X95513802Y-78164696D01*
X94772429Y-78099903D01*
X94064000Y-77981531D01*
X93956392Y-77958291D01*
X93801424Y-77923148D01*
X93691910Y-77896110D01*
X93646588Y-77881662D01*
X93662098Y-77856204D01*
X93726367Y-77777531D01*
X93831916Y-77655933D01*
X93969819Y-77501664D01*
X94131153Y-77324977D01*
X94806974Y-76563489D01*
X95719650Y-75439092D01*
X96576832Y-74267403D01*
X97364697Y-73066626D01*
X97401672Y-73006454D01*
X97505920Y-72831400D01*
X97587038Y-72686961D01*
X97637588Y-72586742D01*
X97650132Y-72544354D01*
X97648817Y-72543589D01*
X97593066Y-72541672D01*
X97467898Y-72548268D01*
X97286568Y-72562362D01*
X97062334Y-72582935D01*
X96808451Y-72608970D01*
X96274296Y-72664223D01*
X95255885Y-72758951D01*
X94192975Y-72845267D01*
X93111324Y-72921283D01*
X92036690Y-72985113D01*
X90994834Y-73034868D01*
X90818393Y-73042172D01*
X90498582Y-73055415D01*
X90191369Y-73068140D01*
X89914753Y-73079602D01*
X89686733Y-73089056D01*
X89525308Y-73095755D01*
X89498276Y-73096870D01*
X89317712Y-73102903D01*
X89202873Y-73101224D01*
X89136965Y-73089008D01*
X89103197Y-73063431D01*
X89084774Y-73021669D01*
X89080955Y-73004448D01*
X89071230Y-72905089D01*
X89063746Y-72745357D01*
X89059181Y-72543225D01*
X89058212Y-72316667D01*
X89058669Y-72263997D01*
X89109021Y-71551118D01*
X89241789Y-70854844D01*
X89457313Y-70174082D01*
X89755933Y-69507741D01*
X90137990Y-68854728D01*
X90425036Y-68443641D01*
X90945989Y-67811199D01*
X91527849Y-67234172D01*
X92172913Y-66710578D01*
X92883476Y-66238438D01*
X93661834Y-65815771D01*
X93836191Y-65732042D01*
X94627544Y-65397694D01*
X95415157Y-65142356D01*
X96211377Y-64963116D01*
X97028552Y-64857063D01*
X97879030Y-64821285D01*
X98037483Y-64821575D01*
X98448739Y-64829852D01*
X98810744Y-64851213D01*
X99149407Y-64888254D01*
X99490636Y-64943569D01*
X99860339Y-65019754D01*
X100039408Y-65061884D01*
X100743838Y-65272445D01*
X101410230Y-65544140D01*
X102027630Y-65872020D01*
X102585087Y-66251134D01*
X102730356Y-66353218D01*
X102853224Y-66420474D01*
X102932058Y-66440341D01*
X103059167Y-66413519D01*
X103254329Y-66358385D01*
X103488076Y-66283281D01*
X103739960Y-66195366D01*
X103989537Y-66101800D01*
X104216360Y-66009742D01*
X104399986Y-65926349D01*
X104760416Y-65734593D01*
X105345381Y-65354264D01*
X105870188Y-64916520D01*
X106338070Y-64418145D01*
X106752261Y-63855924D01*
X107115995Y-63226645D01*
X107212395Y-63034119D01*
X107316937Y-62815464D01*
X107405316Y-62620010D01*
X107471882Y-62460774D01*
X107510983Y-62350774D01*
X107516969Y-62303027D01*
X107508608Y-62302851D01*
X107436530Y-62315426D01*
X107303181Y-62343926D01*
X107123435Y-62385088D01*
X106912167Y-62435653D01*
X106019149Y-62648524D01*
X103593718Y-63175374D01*
X101180121Y-63623533D01*
X98768226Y-63994459D01*
X96347900Y-64289605D01*
X93909011Y-64510429D01*
X91441426Y-64658386D01*
X91285904Y-64664587D01*
X90920439Y-64674844D01*
X90491134Y-64682363D01*
X90009412Y-64687246D01*
X89486696Y-64689595D01*
X88934408Y-64689514D01*
X88363972Y-64687104D01*
X87786809Y-64682468D01*
X87214342Y-64675708D01*
X86657994Y-64666927D01*
X86129188Y-64656227D01*
X85639346Y-64643712D01*
X85199892Y-64629482D01*
X84822247Y-64613640D01*
X84517834Y-64596290D01*
X84314359Y-64582127D01*
X82616091Y-64444382D01*
X80983479Y-64275384D01*
X79404069Y-64073058D01*
X77865405Y-63835330D01*
X76355031Y-63560122D01*
X74860493Y-63245362D01*
X73369335Y-62888972D01*
X71869101Y-62488878D01*
X71728625Y-62449822D01*
X71476170Y-62381184D01*
X71258035Y-62323895D01*
X71085991Y-62280938D01*
X70971808Y-62255301D01*
X70927254Y-62249968D01*
X70928823Y-62288769D01*
X70961604Y-62393047D01*
X71022433Y-62548517D01*
X71105868Y-62742096D01*
X71206468Y-62960700D01*
X71318788Y-63191245D01*
X71388052Y-63325400D01*
X71761884Y-63940312D01*
X72199773Y-64501658D01*
X72697543Y-65005587D01*
X73251019Y-65448246D01*
X73856026Y-65825782D01*
X74508388Y-66134343D01*
X74743609Y-66229453D01*
X75112067Y-65989279D01*
X75657129Y-65674881D01*
X76301840Y-65390000D01*
X76989912Y-65167396D01*
X77712506Y-65008549D01*
X78460784Y-64914943D01*
X79225907Y-64888059D01*
X79999037Y-64929379D01*
X80771334Y-65040385D01*
X80792650Y-65044467D01*
X81602328Y-65236947D01*
X82383294Y-65494696D01*
X83131005Y-65813557D01*
X83840913Y-66189373D01*
X84508474Y-66617988D01*
X85129142Y-67095244D01*
X85698372Y-67616986D01*
X86211617Y-68179055D01*
X86664334Y-68777295D01*
X87051975Y-69407550D01*
X87369997Y-70065663D01*
X87613852Y-70747476D01*
X87778996Y-71448834D01*
X87806987Y-71648794D01*
X87830872Y-71909018D01*
X87847297Y-72192653D01*
X87855659Y-72478211D01*
X87855353Y-72744209D01*
X87845774Y-72969162D01*
X87826319Y-73131584D01*
X87794831Y-73290334D01*
X87383999Y-73290083D01*
X87350936Y-73290034D01*
X86840733Y-73283267D01*
X86261168Y-73265846D01*
X85625777Y-73238759D01*
X84948094Y-73202995D01*
X84241655Y-73159543D01*
X83519994Y-73109393D01*
X82796647Y-73053535D01*
X82085148Y-72992956D01*
X81399032Y-72928647D01*
X80751834Y-72861597D01*
X80157090Y-72792795D01*
X79628334Y-72723231D01*
X79522752Y-72708600D01*
X79367957Y-72688558D01*
X79259528Y-72676391D01*
X79216164Y-72674317D01*
X79215747Y-72675693D01*
X79239249Y-72722097D01*
X79304092Y-72825061D01*
X79402974Y-72974034D01*
X79528592Y-73158467D01*
X79673643Y-73367807D01*
X79830825Y-73591506D01*
X79992834Y-73819011D01*
X80152369Y-74039774D01*
X80302126Y-74243242D01*
X80853121Y-74964151D01*
X81503320Y-75763209D01*
X82165897Y-76520112D01*
X82859179Y-77256460D01*
X83403368Y-77814753D01*
X83240934Y-77858206D01*
X83067622Y-77899351D01*
X82687560Y-77964562D01*
X82255541Y-78012863D01*
X81791975Y-78043514D01*
X81317276Y-78055773D01*
X80851855Y-78048899D01*
X80416126Y-78022150D01*
X80030500Y-77974786D01*
X79304928Y-77829338D01*
X78484162Y-77597566D01*
X77698978Y-77302982D01*
X76953538Y-76949163D01*
X76252001Y-76539685D01*
X75598529Y-76078126D01*
X74997283Y-75568062D01*
X74452422Y-75013071D01*
X73968108Y-74416730D01*
X73548501Y-73782616D01*
X73197762Y-73114305D01*
X72920052Y-72415376D01*
X72719531Y-71689404D01*
X72691784Y-71533631D01*
X72659205Y-71253296D01*
X72636194Y-70929085D01*
X72623513Y-70584865D01*
X72621925Y-70244505D01*
X72632190Y-69931872D01*
X72655073Y-69670834D01*
X72687979Y-69416834D01*
X72257844Y-69185840D01*
X72068258Y-69081429D01*
X71318233Y-68612193D01*
X70616305Y-68077591D01*
X69952969Y-67470550D01*
X69938018Y-67455609D01*
X69336092Y-66803441D01*
X68803065Y-66118385D01*
X68328866Y-65386298D01*
X67903420Y-64593039D01*
X67601872Y-63933928D01*
X67283009Y-63105659D01*
X67025479Y-62258172D01*
X66820311Y-61364725D01*
X66702032Y-60763284D01*
X66360099Y-60627329D01*
X66207097Y-60566043D01*
X65817875Y-60407029D01*
X65392115Y-60229493D01*
X64949042Y-60041680D01*
X64507881Y-59851834D01*
X64087854Y-59668203D01*
X63708186Y-59499031D01*
X63388101Y-59352564D01*
X63133528Y-59236930D01*
X62880326Y-59127526D01*
X62649394Y-59033068D01*
X62458697Y-58960900D01*
X62326199Y-58918369D01*
X62031697Y-58841985D01*
X61777217Y-59014799D01*
X61522737Y-59187612D01*
X61769659Y-60322890D01*
X62000414Y-61398489D01*
X62244864Y-62573002D01*
X62474074Y-63712612D01*
X62687534Y-64813980D01*
X62884733Y-65873767D01*
X63065160Y-66888634D01*
X63228305Y-67855240D01*
X63373659Y-68770247D01*
X63500709Y-69630316D01*
X63608946Y-70432106D01*
X63697860Y-71172279D01*
X63766939Y-71847496D01*
X63815673Y-72454416D01*
X63843553Y-72989701D01*
X63850067Y-73450012D01*
X63834705Y-73832008D01*
X63829783Y-73892029D01*
X63797689Y-74160906D01*
X63752310Y-74356418D01*
X63689577Y-74487711D01*
X63605425Y-74563930D01*
X63495787Y-74594219D01*
X63431022Y-74595156D01*
X63339347Y-74573916D01*
X63231855Y-74516420D01*
X63085147Y-74412301D01*
X62871731Y-74234077D01*
X62592038Y-73959765D01*
X62278883Y-73615042D01*
X61934328Y-73202907D01*
X61560438Y-72726357D01*
X61159274Y-72188392D01*
X60732901Y-71592009D01*
X60283380Y-70940206D01*
X59812775Y-70235981D01*
X59323149Y-69482332D01*
X58816565Y-68682258D01*
X58295086Y-67838756D01*
X57760775Y-66954825D01*
X57215695Y-66033462D01*
X56661909Y-65077667D01*
X56476206Y-64752736D01*
X56155012Y-64183513D01*
X55874137Y-63673667D01*
X55630211Y-63215294D01*
X55419867Y-62800488D01*
X55239735Y-62421341D01*
X55086448Y-62069949D01*
X54956636Y-61738404D01*
X54846931Y-61418801D01*
X54753964Y-61103234D01*
X54674367Y-60783795D01*
X54604772Y-60452580D01*
X54541809Y-60101682D01*
X54532143Y-60040074D01*
X54496355Y-59715148D01*
X54475443Y-59344719D01*
X54469420Y-58954554D01*
X54478296Y-58570423D01*
X54502085Y-58218093D01*
X54540797Y-57923334D01*
X54618671Y-57565501D01*
X54795428Y-56991239D01*
X55029434Y-56423017D01*
X55309938Y-55885788D01*
X55626188Y-55404500D01*
X55686536Y-55327691D01*
X76858065Y-55327691D01*
X76872848Y-55945979D01*
X76958144Y-56521529D01*
X77113960Y-57053322D01*
X77340305Y-57540338D01*
X77637186Y-57981555D01*
X77766426Y-58133801D01*
X77919579Y-58284604D01*
X78102490Y-58432398D01*
X78338227Y-58597451D01*
X78662174Y-58803215D01*
X79249817Y-59125504D01*
X79845032Y-59390215D01*
X80433056Y-59591109D01*
X80999129Y-59721948D01*
X81539499Y-59777577D01*
X82053545Y-59754996D01*
X82536926Y-59653697D01*
X82989152Y-59473827D01*
X83409729Y-59215536D01*
X83798167Y-58878971D01*
X84078180Y-58585211D01*
X84452852Y-58143251D01*
X84759420Y-57709395D01*
X85005135Y-57271716D01*
X85197244Y-56818287D01*
X85342996Y-56337181D01*
X85441909Y-55805120D01*
X85479671Y-55186847D01*
X85473444Y-55079433D01*
X91416014Y-55079433D01*
X91417962Y-55186847D01*
X91423078Y-55469035D01*
X91442407Y-55838766D01*
X91473800Y-56167296D01*
X91517057Y-56433297D01*
X91678904Y-57038498D01*
X91898430Y-57598663D01*
X92173796Y-58097457D01*
X92507321Y-58537925D01*
X92901320Y-58923113D01*
X93358111Y-59256067D01*
X93880011Y-59539834D01*
X94067243Y-59619601D01*
X94410895Y-59738992D01*
X94793807Y-59846040D01*
X95188334Y-59933313D01*
X95566834Y-59993377D01*
X95596138Y-59996954D01*
X95786656Y-60019728D01*
X95922879Y-60031104D01*
X96031357Y-60028801D01*
X96138641Y-60010537D01*
X96271283Y-59974032D01*
X96455834Y-59917004D01*
X96633151Y-59859817D01*
X97303392Y-59600266D01*
X97913187Y-59291945D01*
X98460015Y-58937147D01*
X98941356Y-58538165D01*
X99354690Y-58097290D01*
X99697496Y-57616815D01*
X99967255Y-57099033D01*
X100161447Y-56546235D01*
X100210077Y-56315956D01*
X100249711Y-56009080D01*
X100274485Y-55668081D01*
X100283196Y-55318778D01*
X100274639Y-54986992D01*
X100247611Y-54698541D01*
X100239149Y-54641541D01*
X100159076Y-54223536D01*
X100045333Y-53770479D01*
X99906821Y-53314896D01*
X99752444Y-52889316D01*
X99696523Y-52751152D01*
X99612983Y-52552519D01*
X99538292Y-52383628D01*
X99477114Y-52254192D01*
X99434115Y-52173927D01*
X99413959Y-52152547D01*
X99421313Y-52199768D01*
X99437856Y-52296290D01*
X99449523Y-52482776D01*
X99449908Y-52713190D01*
X99440020Y-52964730D01*
X99420862Y-53214590D01*
X99393441Y-53439967D01*
X99358763Y-53618054D01*
X99304502Y-53800328D01*
X99160308Y-54150747D01*
X98975763Y-54475531D01*
X98761234Y-54759923D01*
X98527086Y-54989167D01*
X98283684Y-55148508D01*
X98106976Y-55224215D01*
X97764512Y-55309373D01*
X97430003Y-55310583D01*
X97105509Y-55228230D01*
X96793085Y-55062698D01*
X96494790Y-54814371D01*
X96275940Y-54558628D01*
X96053494Y-54186686D01*
X95890936Y-53764545D01*
X95791228Y-53300289D01*
X95757334Y-52802003D01*
X95766870Y-52452744D01*
X95800581Y-52137042D01*
X95862782Y-51852648D01*
X95957749Y-51573334D01*
X96084290Y-51296461D01*
X96299801Y-50952925D01*
X96553027Y-50667948D01*
X96836776Y-50447938D01*
X96856256Y-50438509D01*
X98402047Y-50438509D01*
X98402419Y-50457576D01*
X98454258Y-50491112D01*
X98462289Y-50494125D01*
X98504708Y-50503008D01*
X98477956Y-50467414D01*
X98446830Y-50443258D01*
X98402047Y-50438509D01*
X96856256Y-50438509D01*
X97143855Y-50299303D01*
X97467073Y-50228452D01*
X97544319Y-50220540D01*
X97626430Y-50206547D01*
X97649918Y-50189215D01*
X97609831Y-50166273D01*
X97501217Y-50135450D01*
X97319126Y-50094475D01*
X97058604Y-50041075D01*
X96907746Y-50014157D01*
X96544317Y-49969763D01*
X96151161Y-49944821D01*
X95750700Y-49939343D01*
X95365358Y-49953343D01*
X95017557Y-49986831D01*
X94729721Y-50039820D01*
X94256974Y-50184954D01*
X93741219Y-50416971D01*
X93275267Y-50715061D01*
X92854432Y-51081831D01*
X92756331Y-51184261D01*
X92404289Y-51621786D01*
X92095754Y-52120250D01*
X91836884Y-52667107D01*
X91633837Y-53249815D01*
X91492771Y-53855829D01*
X91470423Y-54004698D01*
X91439485Y-54325935D01*
X91421416Y-54691290D01*
X91416014Y-55079433D01*
X85473444Y-55079433D01*
X85442598Y-54547343D01*
X85331934Y-53893732D01*
X85148924Y-53233139D01*
X84894816Y-52572687D01*
X84570852Y-51919501D01*
X84567277Y-51913051D01*
X84426132Y-51668101D01*
X84300923Y-51477613D01*
X84173689Y-51319160D01*
X84026468Y-51170317D01*
X83841297Y-51008658D01*
X83630426Y-50832500D01*
X83727874Y-50980667D01*
X83733296Y-50988969D01*
X83867661Y-51227923D01*
X83996076Y-51514174D01*
X84102657Y-51812469D01*
X84118056Y-51866155D01*
X84147271Y-52006509D01*
X84166093Y-52175528D01*
X84176174Y-52391823D01*
X84179167Y-52674000D01*
X84179055Y-52749094D01*
X84175927Y-52991371D01*
X84166775Y-53176411D01*
X84149289Y-53325937D01*
X84121158Y-53461671D01*
X84080070Y-53605334D01*
X83984886Y-53870728D01*
X83798569Y-54247496D01*
X83574304Y-54564621D01*
X83317610Y-54817956D01*
X83034009Y-55003352D01*
X82729019Y-55116663D01*
X82408162Y-55153740D01*
X82076956Y-55110435D01*
X81877708Y-55044284D01*
X81568194Y-54872879D01*
X81290911Y-54630437D01*
X81051523Y-54323453D01*
X80855693Y-53958420D01*
X80709084Y-53541834D01*
X80675200Y-53395468D01*
X80628926Y-53063776D01*
X80610783Y-52703772D01*
X80621827Y-52350013D01*
X80663113Y-52037060D01*
X80757035Y-51679704D01*
X80916127Y-51291025D01*
X81120348Y-50951388D01*
X81363635Y-50667657D01*
X81639929Y-50446695D01*
X81943168Y-50295365D01*
X82267291Y-50220530D01*
X82528167Y-50193624D01*
X82104834Y-50049043D01*
X81989796Y-50010171D01*
X81850439Y-49966709D01*
X81728280Y-49937124D01*
X81602946Y-49918728D01*
X81454064Y-49908833D01*
X81261262Y-49904749D01*
X81004167Y-49903789D01*
X80907680Y-49903774D01*
X80671357Y-49905388D01*
X80493935Y-49911220D01*
X80356160Y-49923496D01*
X80238776Y-49944441D01*
X80122530Y-49976283D01*
X79988167Y-50021245D01*
X79608305Y-50172327D01*
X79125134Y-50428334D01*
X78669436Y-50750316D01*
X78226610Y-51147610D01*
X78112903Y-51262338D01*
X78007832Y-51378104D01*
X77925876Y-51488278D01*
X77853534Y-51613965D01*
X77777305Y-51776271D01*
X77683686Y-51996302D01*
X77503900Y-52447575D01*
X77236712Y-53226609D01*
X77040004Y-53966986D01*
X76913786Y-54667687D01*
X76858065Y-55327691D01*
X55686536Y-55327691D01*
X55818890Y-55159234D01*
X56260167Y-54675459D01*
X56762796Y-54211556D01*
X57311236Y-53780244D01*
X57889942Y-53394242D01*
X58483373Y-53066270D01*
X58536076Y-53039770D01*
X58671021Y-52967491D01*
X58765040Y-52910428D01*
X58800334Y-52879092D01*
X58799727Y-52877109D01*
X58769212Y-52826343D01*
X58696409Y-52715088D01*
X58586575Y-52551106D01*
X58444965Y-52342157D01*
X58276837Y-52096003D01*
X58087445Y-51820405D01*
X57882046Y-51523125D01*
X57635743Y-51165035D01*
X57389230Y-50799817D01*
X57189620Y-50495530D01*
X57037967Y-50253815D01*
X56935322Y-50076313D01*
X56882739Y-49964667D01*
X56857001Y-49879458D01*
X56823088Y-49598731D01*
X56860400Y-49324589D01*
X56961904Y-49071036D01*
X57120564Y-48852076D01*
X57329349Y-48681713D01*
X57581224Y-48573952D01*
X57592115Y-48571257D01*
X57690434Y-48550857D01*
X57859822Y-48518804D01*
X58090031Y-48476924D01*
X58370817Y-48427039D01*
X58691932Y-48370975D01*
X59043131Y-48310556D01*
X59414167Y-48247606D01*
X59522666Y-48229273D01*
X59879247Y-48168250D01*
X60206755Y-48111044D01*
X60496113Y-48059318D01*
X60738245Y-48014735D01*
X60924072Y-47978958D01*
X61044518Y-47953650D01*
X61090505Y-47940474D01*
X61103761Y-47920522D01*
X61152177Y-47837356D01*
X61224425Y-47707682D01*
X61310471Y-47549341D01*
X61505098Y-47187183D01*
X60794201Y-45559675D01*
X60724806Y-45400609D01*
X60573904Y-45053357D01*
X60433687Y-44728869D01*
X60308048Y-44436272D01*
X60200884Y-44184691D01*
X60116088Y-43983250D01*
X60057555Y-43841076D01*
X60029181Y-43767292D01*
X59986248Y-43536886D01*
X60002403Y-43263779D01*
X60079850Y-42996812D01*
X60211714Y-42758692D01*
X60391116Y-42572127D01*
X60402295Y-42563652D01*
X60481013Y-42508460D01*
X60561642Y-42464135D01*
X60653366Y-42429936D01*
X60765368Y-42405123D01*
X60906832Y-42388954D01*
X61086941Y-42380688D01*
X61314879Y-42379584D01*
X61599830Y-42384901D01*
X61950976Y-42395899D01*
X62377500Y-42411834D01*
X62589079Y-42419905D01*
X62943974Y-42432788D01*
X63280378Y-42444222D01*
X63585070Y-42453800D01*
X63844830Y-42461114D01*
X64046435Y-42465757D01*
X64176667Y-42467321D01*
X64536500Y-42466874D01*
X64790500Y-42134166D01*
X64858872Y-42042048D01*
X64952453Y-41905720D01*
X65014915Y-41800933D01*
X65035378Y-41744979D01*
X65032479Y-41730590D01*
X65013384Y-41643270D01*
X64978412Y-41486487D01*
X64929583Y-41269193D01*
X64868915Y-41000344D01*
X64798427Y-40688892D01*
X64720139Y-40343793D01*
X64636068Y-39974000D01*
X64582126Y-39736183D01*
X64484491Y-39299303D01*
X64405428Y-38933009D01*
X64343866Y-38629437D01*
X64298735Y-38380727D01*
X64268967Y-38179015D01*
X64253491Y-38016439D01*
X64251238Y-37885137D01*
X64261138Y-37777247D01*
X64282121Y-37684907D01*
X64313119Y-37600255D01*
X64339739Y-37542641D01*
X64501040Y-37304912D01*
X64714118Y-37123937D01*
X64965707Y-37008738D01*
X65242539Y-36968334D01*
X65251881Y-36968488D01*
X65377587Y-36982603D01*
X65583334Y-37019424D01*
X65867836Y-37078674D01*
X66229806Y-37160073D01*
X66667957Y-37263343D01*
X67181003Y-37388204D01*
X68884660Y-37808075D01*
X69218440Y-37525787D01*
X69552219Y-37243500D01*
X69532389Y-36989500D01*
X69531905Y-36983020D01*
X69525933Y-36875508D01*
X69517992Y-36695586D01*
X69508489Y-36454342D01*
X69497830Y-36162864D01*
X69486422Y-35832240D01*
X69474673Y-35473557D01*
X69462989Y-35097903D01*
X69456441Y-34880405D01*
X69444656Y-34465982D01*
X69436971Y-34123600D01*
X69434334Y-33844647D01*
X69437691Y-33620509D01*
X69447987Y-33442572D01*
X69466169Y-33302223D01*
X69493183Y-33190847D01*
X69529974Y-33099832D01*
X69577489Y-33020564D01*
X69636675Y-32944429D01*
X69708476Y-32862813D01*
X69794265Y-32774851D01*
X70007452Y-32620466D01*
X70243473Y-32541370D01*
X70518493Y-32530939D01*
X70562520Y-32535370D01*
X70637189Y-32548877D01*
X70726193Y-32573305D01*
X70837259Y-32611913D01*
X70978118Y-32667955D01*
X71156497Y-32744690D01*
X71380127Y-32845374D01*
X71656736Y-32973263D01*
X71994052Y-33131615D01*
X72399805Y-33323686D01*
X74032371Y-34098441D01*
X74395613Y-33900438D01*
X74492977Y-33846673D01*
X74633742Y-33766117D01*
X74734003Y-33705042D01*
X74776658Y-33673629D01*
X74781299Y-33654850D01*
X74798455Y-33561816D01*
X74826200Y-33399105D01*
X74863113Y-33175444D01*
X74907776Y-32899560D01*
X74958768Y-32580178D01*
X75014668Y-32226025D01*
X75074058Y-31845828D01*
X75106735Y-31637187D01*
X75167119Y-31259832D01*
X75225032Y-30908033D01*
X75278782Y-30591485D01*
X75326679Y-30319881D01*
X75367032Y-30102915D01*
X75398151Y-29950283D01*
X75418344Y-29871678D01*
X75449705Y-29800162D01*
X75582537Y-29602868D01*
X75762484Y-29427467D01*
X75963079Y-29301654D01*
X76054268Y-29267084D01*
X76305021Y-29223848D01*
X76563522Y-29240594D01*
X76795409Y-29316700D01*
X76808213Y-29323753D01*
X76898691Y-29381938D01*
X77045970Y-29483653D01*
X77241558Y-29622765D01*
X77476963Y-29793139D01*
X77743694Y-29988641D01*
X78033259Y-30203136D01*
X78337167Y-30430490D01*
X78434764Y-30503841D01*
X78726911Y-30723156D01*
X78996611Y-30925245D01*
X79236332Y-31104490D01*
X79438544Y-31255273D01*
X79595716Y-31371975D01*
X79700318Y-31448978D01*
X79744819Y-31480664D01*
X79806517Y-31482694D01*
X79925278Y-31461829D01*
X80078520Y-31424474D01*
X80243744Y-31377084D01*
X80398451Y-31326113D01*
X80520141Y-31278017D01*
X80586316Y-31239249D01*
X80598509Y-31216567D01*
X80638781Y-31120863D01*
X80702118Y-30959114D01*
X80785369Y-30739734D01*
X80885387Y-30471136D01*
X80999021Y-30161733D01*
X81123122Y-29819939D01*
X81254540Y-29454167D01*
X81314519Y-29286801D01*
X81490919Y-28800569D01*
X81641802Y-28394716D01*
X81767259Y-28069004D01*
X81867385Y-27823195D01*
X81942272Y-27657051D01*
X81992014Y-27570334D01*
X82071151Y-27483116D01*
X82290667Y-27324915D01*
X82549936Y-27227066D01*
X82830336Y-27195143D01*
X83113247Y-27234720D01*
X83118564Y-27236215D01*
X83179217Y-27256724D01*
X83241358Y-27286716D01*
X83310436Y-27331594D01*
X83391895Y-27396766D01*
X83491185Y-27487637D01*
X83613752Y-27609611D01*
X83765042Y-27768096D01*
X83950504Y-27968495D01*
X84175584Y-28216215D01*
X84445730Y-28516661D01*
X84766388Y-28875239D01*
X85912762Y-30159137D01*
X86315964Y-30130621D01*
X86535815Y-30109328D01*
X86692431Y-30079498D01*
X86766195Y-30042682D01*
X86776279Y-30027786D01*
X86826680Y-29946913D01*
X86913086Y-29804963D01*
X87030735Y-29609870D01*
X87174862Y-29369566D01*
X87340703Y-29091986D01*
X87523496Y-28785064D01*
X87718475Y-28456732D01*
X87806217Y-28309161D01*
X88001073Y-27984205D01*
X88184742Y-27681582D01*
X88351958Y-27409747D01*
X88497452Y-27177155D01*
X88615960Y-26992260D01*
X88702214Y-26863515D01*
X88750947Y-26799376D01*
X88962892Y-26637355D01*
X89211004Y-26540104D01*
X89475949Y-26509292D01*
X89740180Y-26544745D01*
X89986152Y-26646288D01*
X90196317Y-26813747D01*
X90212521Y-26833560D01*
X90278907Y-26928750D01*
X90380405Y-27084902D01*
X90511710Y-27293457D01*
X90667519Y-27545854D01*
X90842529Y-27833534D01*
X91031436Y-28147936D01*
X91228937Y-28480500D01*
X91323503Y-28640501D01*
X91512225Y-28958793D01*
X91686530Y-29251436D01*
X91841670Y-29510539D01*
X91972897Y-29728213D01*
X92075463Y-29896567D01*
X92144620Y-30007711D01*
X92175620Y-30053754D01*
X92198960Y-30066511D01*
X92296145Y-30091181D01*
X92445156Y-30113894D01*
X92624667Y-30130981D01*
X93026834Y-30158955D01*
X94229247Y-28811727D01*
X94364098Y-28660941D01*
X94617758Y-28378983D01*
X94854844Y-28117580D01*
X95068765Y-27883871D01*
X95252932Y-27684999D01*
X95400753Y-27528102D01*
X95505638Y-27420323D01*
X95560997Y-27368801D01*
X95671580Y-27299405D01*
X95916312Y-27212384D01*
X96176593Y-27192319D01*
X96435288Y-27235304D01*
X96675261Y-27337438D01*
X96879376Y-27494817D01*
X97030499Y-27703537D01*
X97040587Y-27725265D01*
X97083964Y-27831126D01*
X97150691Y-28003506D01*
X97237244Y-28232943D01*
X97340102Y-28509974D01*
X97455740Y-28825136D01*
X97580635Y-29168966D01*
X97711265Y-29532001D01*
X97772111Y-29701602D01*
X97897195Y-30048313D01*
X98012997Y-30366737D01*
X98116338Y-30648290D01*
X98204042Y-30884392D01*
X98272931Y-31066460D01*
X98319826Y-31185912D01*
X98341551Y-31234167D01*
X98360992Y-31248095D01*
X98449611Y-31289219D01*
X98588810Y-31342539D01*
X98758524Y-31400069D01*
X99138927Y-31521639D01*
X100565724Y-30451355D01*
X100708198Y-30344734D01*
X101013371Y-30118070D01*
X101299784Y-29907599D01*
X101559318Y-29719151D01*
X101783858Y-29558552D01*
X101965287Y-29431631D01*
X102095488Y-29344215D01*
X102166344Y-29302132D01*
X102272525Y-29264280D01*
X102499421Y-29227418D01*
X102734052Y-29233577D01*
X102936668Y-29283707D01*
X103049762Y-29339022D01*
X103271966Y-29502754D01*
X103443118Y-29709251D01*
X103546549Y-29940563D01*
X103553274Y-29972330D01*
X103573344Y-30083444D01*
X103603483Y-30259809D01*
X103641993Y-30490795D01*
X103687178Y-30765773D01*
X103737341Y-31074114D01*
X103790784Y-31405191D01*
X103845812Y-31748373D01*
X103900726Y-32093033D01*
X103953831Y-32428541D01*
X104003430Y-32744269D01*
X104047825Y-33029588D01*
X104085319Y-33273869D01*
X104114216Y-33466484D01*
X104132819Y-33596803D01*
X104139431Y-33654198D01*
X104159059Y-33674837D01*
X104240049Y-33729041D01*
X104369277Y-33804739D01*
X104531014Y-33892363D01*
X104922500Y-34097226D01*
X106531167Y-33327214D01*
X106833119Y-33182918D01*
X107183255Y-33016623D01*
X107471048Y-32881699D01*
X107704409Y-32774799D01*
X107891243Y-32692576D01*
X108039461Y-32631683D01*
X108156969Y-32588774D01*
X108251677Y-32560502D01*
X108331491Y-32543519D01*
X108404321Y-32534480D01*
X108504391Y-32529255D01*
X108772214Y-32558453D01*
X109002805Y-32658708D01*
X109209399Y-32834959D01*
X109227878Y-32855034D01*
X109303439Y-32939766D01*
X109365084Y-33019453D01*
X109413934Y-33103060D01*
X109451112Y-33199556D01*
X109477736Y-33317907D01*
X109494928Y-33467080D01*
X109503808Y-33656041D01*
X109505497Y-33893758D01*
X109501116Y-34189198D01*
X109491785Y-34551327D01*
X109478626Y-34989113D01*
X109467788Y-35333802D01*
X109455864Y-35696021D01*
X109444197Y-36034261D01*
X109433228Y-36336393D01*
X109423398Y-36590287D01*
X109415149Y-36783810D01*
X109408922Y-36904834D01*
X109387658Y-37243500D01*
X109719437Y-37524733D01*
X110051217Y-37805965D01*
X111756469Y-37387149D01*
X111952809Y-37339046D01*
X112388512Y-37233584D01*
X112753309Y-37147887D01*
X113055043Y-37080729D01*
X113301560Y-37030880D01*
X113500702Y-36997113D01*
X113660316Y-36978201D01*
X113788243Y-36972915D01*
X113892330Y-36980028D01*
X113980419Y-36998311D01*
X114060356Y-37026538D01*
X114273582Y-37151451D01*
X114470603Y-37352131D01*
X114615065Y-37604134D01*
X114696662Y-37893418D01*
X114696711Y-37893742D01*
X114700427Y-37947907D01*
X114697036Y-38023795D01*
X114685413Y-38126920D01*
X114664436Y-38262798D01*
X114632980Y-38436947D01*
X114589922Y-38654882D01*
X114534139Y-38922119D01*
X114464507Y-39244174D01*
X114379902Y-39626563D01*
X114279202Y-40074803D01*
X114161282Y-40594409D01*
X114025018Y-41190897D01*
X113886927Y-41793960D01*
X114146047Y-42131204D01*
X114405167Y-42468447D01*
X114786167Y-42467496D01*
X114840789Y-42467011D01*
X115012886Y-42463650D01*
X115249334Y-42457470D01*
X115536348Y-42448892D01*
X115860145Y-42438340D01*
X116206939Y-42426235D01*
X116562948Y-42413002D01*
X116971502Y-42397958D01*
X117307743Y-42387387D01*
X117578656Y-42381665D01*
X117793883Y-42381068D01*
X117963067Y-42385869D01*
X118095851Y-42396344D01*
X118201877Y-42412768D01*
X118290788Y-42435415D01*
X118372227Y-42464560D01*
X118507326Y-42544135D01*
X118665081Y-42691824D01*
X118800897Y-42873584D01*
X118892193Y-43063407D01*
X118918006Y-43144614D01*
X118942953Y-43242245D01*
X118956437Y-43339266D01*
X118956162Y-43443473D01*
X118939830Y-43562662D01*
X118905148Y-43704630D01*
X118849818Y-43877173D01*
X118771545Y-44088088D01*
X118668033Y-44345171D01*
X118536987Y-44656218D01*
X118376110Y-45029025D01*
X118183107Y-45471390D01*
X117435812Y-47179947D01*
X117629294Y-47566890D01*
X117687859Y-47683754D01*
X117758813Y-47824516D01*
X117808421Y-47921891D01*
X117828472Y-47959683D01*
X117833971Y-47960986D01*
X117902657Y-47973542D01*
X118042874Y-47997999D01*
X118245748Y-48032844D01*
X118502405Y-48076563D01*
X118803971Y-48127643D01*
X119141572Y-48184570D01*
X119506334Y-48245832D01*
X119605628Y-48262507D01*
X119974766Y-48325035D01*
X120321364Y-48384560D01*
X120635254Y-48439282D01*
X120906273Y-48487400D01*
X121124255Y-48527115D01*
X121279033Y-48556627D01*
X121360444Y-48574135D01*
X121595105Y-48671757D01*
X121807663Y-48838870D01*
X121971066Y-49056801D01*
X122077603Y-49311763D01*
X122119564Y-49589963D01*
X122089240Y-49877614D01*
X122080584Y-49907787D01*
X122051731Y-49980094D01*
X122004330Y-50074790D01*
X121935329Y-50196537D01*
X121841678Y-50349997D01*
X121743864Y-50503008D01*
X121720325Y-50539831D01*
G37*
%TD.AperFunction*%
%TD*%
M02*
